<?xml version="1.0" encoding="UTF-8"?>
<!-- Generated by Pixelmator Pro 3.6.2 -->
<svg width="775" height="950" viewBox="0 0 775 950" xmlns="http://www.w3.org/2000/svg">
    <g id="tmLogo">
        <g id="Group">
            <path id="path1" fill="#ffffff" stroke="none" d="M 356.700012 548.700012 C 358.600006 549 360.600006 549.599976 362.5 549.599976 C 364 549.599976 366.399994 549.299988 366.799988 548.400024 C 367.5 546.799988 367 544.700012 365.799988 542.599976 C 365.100006 544.099976 364.399994 545.5 363.700012 547 C 363.399994 547 363.100006 546.900024 362.700012 546.900024 C 362.399994 544.900024 362.100006 542.900024 361.600006 540.099976 C 370.899994 541.099976 379.799988 541.900024 388.600006 542.900024 C 399.200012 544.099976 409.700012 545.700012 420.299988 546.700012 C 422.5 546.900024 424.899994 544.900024 427.100006 545 C 435 545.599976 442.799988 546.799988 450.600006 548.799988 C 448.299988 548.799988 445.899994 548.799988 443.600006 548.799988 C 443.600006 549.200012 443.600006 549.5 443.5 549.900024 C 473.799988 553.5 504.100006 557.099976 535 560.799988 C 534.599976 562.900024 534.099976 565.099976 533.5 568.400024 C 532.799988 566.599976 532.5 565.799988 532.200012 565 C 532 565 531.799988 565.099976 531.599976 565.099976 C 531.599976 567.299988 531.599976 569.5 531.599976 571.900024 C 528.799988 572.299988 526.099976 572.599976 523.5 573 C 523.5 573.200012 523.5 573.400024 523.5 573.599976 C 525.400024 573.900024 527.200012 574.200012 529 574.5 C 527.5 579.099976 526.099976 583.400024 524.599976 588.099976 C 520.700012 586.099976 525.599976 582.799988 523.900024 580 C 495.899994 576.900024 467.5 573.799988 437.799988 570.5 C 439.200012 572.700012 440 574.200012 440.100006 574.200012 C 444 572.599976 444.299988 576.5 445.600006 578.099976 C 453.299988 587.900024 461.799988 597.400024 462.899994 610.799988 C 463 611.900024 464.799988 613.599976 465.899994 613.799988 C 473.100006 615 480.399994 616.5 487.600006 616.5 C 491.399994 616.5 495.200012 613.700012 499 612.200012 C 499.200012 612.599976 499.799988 614.099976 500.399994 615.700012 C 499.899994 616.700012 498.700012 618.200012 498.600006 619.700012 C 498.100006 625.5 497.799988 631.299988 497.899994 637.099976 C 497.899994 638.299988 500 640.200012 501.399994 640.599976 C 504.600006 641.400024 507.899994 641.400024 512.599976 641.900024 C 510.899994 642.799988 510.399994 643.099976 509.5 643.5 C 513.400024 644.099976 517 644.599976 520.599976 645.200012 C 520.700012 645 520.799988 644.700012 520.900024 644.5 C 520.400024 644.099976 519.900024 643.700012 519.400024 643.299988 C 519.5 642.900024 519.599976 642.5 519.700012 642.099976 C 521.799988 642.700012 523.900024 643.400024 526 643.700012 C 529 644.200012 532 644.599976 535.099976 644.900024 C 538.900024 645.299988 542.700012 645.700012 546.5 646.700012 C 544.700012 646.900024 542.799988 647.099976 541 647.200012 C 541 647 541 646.799988 541.099976 646.700012 C 556.400024 647.900024 571.599976 649.200012 586.900024 650.400024 C 587 651.099976 587.099976 651.799988 587.200012 652.5 C 585.299988 653.200012 583.200012 654.700012 581.400024 654.5 C 576.299988 653.799988 571 655.900024 566.099976 652.799988 C 565.299988 652.299988 563.599976 653 562.299988 653.200012 C 561.700012 653.299988 560.700012 654 560.599976 653.900024 C 557.099976 649.299988 551.799988 651.599976 547.400024 650.700012 C 542.599976 649.700012 537.599976 649.299988 532.700012 649.099976 C 531.5 649 530 650.200012 529.099976 651.200012 C 526.5 654.299988 524.799988 655.099976 521.900024 651.099976 C 519.700012 648.099976 516.5 645 511.799988 646.900024 C 510.700012 647 509.100006 647.700012 508.600006 647.200012 C 503.799988 642.5 497.600006 646.700012 492.5 644 C 492.799988 644.700012 493.399994 644.799988 493.700012 645.099976 C 494.700012 646.099976 495.5 647.299988 496.5 648.400024 C 495.100006 648.599976 493.600006 649.099976 492.299988 648.900024 C 491.299988 648.700012 490.100006 647.799988 489.799988 646.900024 C 487.799988 641.700012 484.100006 642.400024 480 643.700012 L 480.100006 643.599976 C 479.799988 643.5 479.399994 643.5 479.100006 643.299988 C 473.200012 640 466.600006 641.299988 460.399994 640.200012 C 459.399994 640 458.299988 640 457.200012 639.900024 C 454.200012 639.599976 451.100006 639.299988 448.100006 639 C 447.200012 638.900024 445.799988 639.299988 445.399994 638.799988 C 442.799988 635.700012 440.200012 636.900024 437.700012 637.400024 C 431.899994 636.599976 426.200012 635.700012 420.399994 634.900024 C 421 636.400024 421.899994 637.200012 422.799988 637.700012 C 423.5 638.099976 424.299988 638 425.100006 638.200012 C 424.399994 639 423.399994 640.599976 423.200012 640.5 C 421.299988 639.700012 419.200012 638.900024 418 637.400024 C 415.600006 634.400024 413.5 632 409.899994 635.799988 L 410 635.700012 C 409.100006 635.5 408 635.5 407.200012 635 C 402.799988 632.200012 402.200012 632.400024 401.799988 637.400024 C 401.700012 638 401.399994 638.5 401.200012 639.200012 C 390.200012 628.900024 390.200012 628.900024 382.700012 636.799988 C 381.600006 636.400024 380.600006 636.099976 379.700012 635.900024 C 378.899994 635.700012 377.700012 636 377.200012 635.599976 C 376.700012 635 376.399994 633.599976 376.700012 633.099976 C 377.200012 632.299988 378.399994 631.5 379.399994 631.5 C 380.700012 631.400024 382.100006 631.900024 383.5 632.099976 C 383.600006 631.700012 383.600006 631.200012 383.700012 630.799988 C 376 630 368.399994 629.200012 361.100006 628.400024 C 362.200012 630.200012 363 631.599976 363.899994 633.099976 C 361.600006 633.799988 359.299988 634.5 356.799988 635.299988 C 357.299988 636.099976 358.100006 637.400024 358.899994 638.599976 C 358.899994 638.599976 358.899994 638.599976 358.899994 638.599976 C 356 638.200012 353.299988 638.200012 351.399994 635 C 350.5 633.5 347.600006 633.099976 345.5 632.200012 C 344.899994 630.200012 344.700012 626.900024 343.700012 626.599976 C 341.600006 626 339.100006 627.099976 336.700012 627.5 C 336.700012 627.5 337.100006 627.200012 337.100006 627.200012 C 333.600006 629.400024 330.399994 632.400024 325.299988 630 C 325.399994 630.700012 325.600006 631.400024 325.700012 632.200012 C 328.5 632.200012 331.399994 632.200012 334.700012 632.200012 C 337 635 339.899994 636.299988 343.399994 632.5 C 343.799988 632 344.899994 632.200012 345.700012 632 C 347.100006 633.700012 348.600006 635.400024 350.200012 637.400024 C 342.200012 636.5 334.299988 635.599976 326.399994 634.700012 C 326.299988 635.200012 326.299988 635.700012 326.200012 636.099976 C 333.200012 637 340.200012 637.900024 347.200012 638.700012 C 356.5 639.799988 365.899994 640.799988 375.200012 641.900024 C 379.799988 642.5 384.299988 643.400024 388.799988 644 C 400.100006 645.700012 411.5 647.200012 422.799988 649 C 423.799988 649.200012 424.600006 650.400024 425.600006 651.099976 C 424.700012 651.799988 423.899994 653 422.899994 653.099976 C 418.100006 654.099976 413.5 654.299988 409.399994 650.299988 C 407.799988 648.700012 404.899994 648.400024 402.600006 647.599976 C 399.299988 646.400024 397.700012 647.700012 397.899994 651.299988 C 400.600006 651.700012 403.399994 652.099976 406.200012 652.5 C 405.899994 653.700012 405.600006 654.599976 405.200012 656.099976 C 411.200012 655.599976 416.799988 655 422.399994 654.799988 C 423.700012 654.700012 425 655.5 426.299988 656.099976 C 428 656.900024 429.700012 658.799988 431.299988 658.700012 C 436.200012 658.400024 441 657.400024 445.799988 656.599976 C 446.399994 658 447 659.5 447.899994 661.5 C 450.399994 661.200012 453.200012 660.799988 456.399994 660.400024 C 454 658.200012 452.600006 656.400024 450.799988 655.5 C 449.200012 654.700012 446.299988 651.5 445.899994 656.700012 C 444.5 656.599976 443.100006 656.5 441.399994 656.299988 C 445.100006 653.700012 442.299988 652.299988 440.899994 650.700012 L 441 650.799988 C 447.100006 651.400024 453.200012 651.900024 459.200012 652.5 C 460.5 658.5 461.5 658.900024 466.799988 656.299988 C 469 663.200012 472.899994 666.299988 479.899994 661.900024 C 476.5 660.099976 472.700012 658 468.299988 655.700012 C 476.5 650.799988 480.600006 659.299988 487.200012 659.900024 C 487.200012 661.5 487.200012 663.400024 487.200012 666.5 C 493.600006 665.299988 500.5 664 507.700012 662.700012 C 507.200012 663.900024 506.5 665.900024 505.799988 667.700012 C 509.700012 667.700012 514.299988 667.700012 518.799988 667.700012 C 517.400024 665.799988 515.700012 665.299988 514.599976 664.299988 C 512.099976 661.900024 507 661.5 508.200012 656.099976 C 510 656.900024 511.700012 658.099976 513.599976 658.5 C 517.400024 659.200012 520.599976 660.099976 522.299988 664.400024 C 523 666.200012 526.099976 667.099976 528.599976 668.700012 C 528.700012 668.400024 528.299988 669.299988 527.400024 671.400024 C 531.400024 671.099976 534.799988 670.900024 538.200012 670.700012 C 538.299988 670.299988 538.5 669.900024 538.599976 669.5 C 535.799988 667.599976 533 665.700012 529.900024 663.599976 C 536 659.700012 540.299988 661.700012 542.200012 668.599976 C 544.299988 668.900024 546.5 669.200012 548.900024 669.5 C 549.099976 673.900024 546 674.799988 543.400024 674.599976 C 534.599976 674 525.799988 673.099976 517.099976 671.700012 C 515.099976 671.400024 513.700012 672.799988 511 671.599976 C 506.700012 669.700012 500.899994 671.799988 495.700012 671.599976 C 491.100006 671.400024 486.600006 670.200012 482 669.700012 C 475.399994 669 468.799988 668.5 462.200012 667.799988 C 448 666.400024 433.899994 665.200012 419.700012 663.5 C 414.600006 662.900024 409.600006 661 404.5 660.400024 C 395.600006 659.400024 386.5 659.200012 377.600006 658.099976 C 369.600006 657.099976 361.700012 655 353.700012 653.900024 C 349.200012 653.299988 344.600006 653.799988 340 653.5 C 331.100006 652.799988 322.299988 651.700012 313.399994 650.900024 C 307 650.299988 300.5 649.900024 294.100006 649.400024 C 294 649.900024 294 650.400024 293.899994 651 C 314.299988 653.599976 334.799988 656.200012 354.299988 658.599976 C 353.399994 661.299988 352.600006 663.599976 351.700012 666.299988 C 355 666.599976 357.299988 666.799988 360.200012 667 C 360 670.200012 359.799988 673.400024 359.5 678 C 357 675.900024 355.399994 674.599976 353.700012 673.299988 C 353.399994 674.5 353 676.099976 352.5 677.799988 C 358.700012 679.5 364.600006 680.900024 370.399994 682.700012 C 373.700012 683.700012 377.100006 684.900024 380.100006 686.599976 C 388.5 691.299988 394.899994 696.900024 393.299988 708.400024 C 391.899994 719.400024 392.899994 730.700012 392.399994 741.799988 C 391.899994 752.200012 390.799988 762.599976 390.299988 772.900024 C 390 778.400024 390.5 783.900024 390.200012 789.299988 C 390.100006 791.400024 388.799988 793.400024 388.399994 794.599976 C 382.700012 791.5 377.799988 788.5 372.600006 786.200012 C 364.5 782.700012 362.299988 783.200012 360.200012 792.700012 C 358.799988 790.299988 357.600006 788.5 356.700012 786.599976 C 353.700012 780.400024 347.700012 777.400024 340.700012 779 C 339.799988 779.200012 338.399994 780 338 779.700012 C 332.200012 774.900024 333.5 780.5 332.899994 783.099976 C 332.100006 786.599976 331.399994 790.099976 330.299988 794.700012 C 329.299988 793 328.399994 792.299988 328.600006 791.799988 C 330.100006 785.5 324.799988 782.299988 322 778.299988 C 320.899994 776.700012 317.600006 776.599976 315.399994 775.799988 C 314.899994 777.5 314.299988 779.099976 314 780.799988 C 313.700012 782 313.799988 783.299988 314.200012 784.5 C 314.200012 771.200012 313.799988 757.900024 314.299988 744.700012 C 315 726.900024 316.700012 709.099976 317.5 691.299988 C 317.700012 686.299988 319.899994 683.200012 324.100006 682.099976 C 332.200012 679.799988 340.5 678.299988 349.100006 676.299988 C 350.299988 669.799988 349.299988 668.700012 341.5 669.799988 C 336.100006 670.599976 330.799988 671.900024 325.200012 672.599976 C 328.399994 671.099976 331.600006 669.700012 335 668.099976 C 329.5 662.900024 320.200012 669.799988 316.700012 662 C 323.600006 662.700012 330.5 663.5 337.399994 664.200012 C 340.200012 664.5 343.100006 664.700012 345.899994 664.299988 C 347.299988 664.099976 348.5 662.700012 349.799988 661.900024 C 349.600006 661.400024 349.399994 660.900024 349.200012 660.400024 C 337.399994 659.400024 325.600006 658.299988 313.200012 657.200012 C 310.799988 705.900024 308.299988 754.900024 305.899994 803.900024 C 305.200012 803.900024 304.399994 803.799988 303.700012 803.799988 C 305.399994 766.200012 307 728.5 308.700012 690 C 305.100006 692.299988 302 694.299988 299.899994 695.700012 C 299.5 699.799988 299.100006 703.400024 298.799988 707.099976 C 298 707.099976 297.200012 707.200012 296.399994 707.200012 C 295.700012 704 295.100006 700.700012 294.399994 697.599976 C 290.5 700.400024 288.299988 704.400024 288.100006 710.200012 C 286.700012 745.799988 284.899994 781.400024 283 817 C 282.899994 819.900024 281.600006 822.700012 280.799988 825.5 C 280.100006 825.5 279.5 825.5 278.799988 825.5 C 272.899994 821.799988 267.399994 816.299988 261 814.900024 C 255.600006 813.799988 251.600006 810.400024 249.100006 807.700012 C 245.899994 804.299988 240.899994 801.900024 239.399994 797.900024 C 237.399994 792.400024 234.5 789 229.699997 786.200012 C 226.800003 784.400024 224.800003 781.099976 222.199997 778.299988 C 222.5 777.900024 223.300003 776.900024 224.199997 775.700012 C 216.600006 776.200012 219 768 214 766 C 213.800003 766.099976 213 766.700012 212.800003 766.900024 C 209.800003 760.099976 207.199997 753.299988 203.899994 746.799988 C 202.899994 744.700012 200.5 743.299988 198.699997 741.599976 C 197.100006 740.099976 195.5 738.599976 193.899994 737.200012 C 189.800003 733.5 185.800003 729.599976 181.5 726 C 176 721.5 170 717.700012 164.899994 712.900024 C 161 709.200012 156.600006 707.799988 151.699997 706.5 C 143.800003 704.5 135.899994 702.700012 128.399994 699.799988 C 122.400002 697.5 117.800003 691.200012 118.599998 685.799988 C 119.400002 680.5 117 678 114.900002 674.200012 C 120 672.099976 124.900002 670 130 668.200012 C 133 667.099976 134.899994 666 134.100006 662.200012 C 133.199997 658 132.899994 653.700012 132.699997 649.400024 C 132.600006 647.900024 133.399994 645.299988 134.399994 644.900024 C 139.300003 643.099976 144.399994 641.400024 149.5 640.400024 C 156.300003 639.099976 163.300003 638.400024 170.199997 637.599976 C 176.399994 637 178.899994 631.700012 182.800003 628.200012 C 187.699997 623.900024 193.199997 620.599976 200.300003 624.200012 C 201.899994 625 204.5 624.799988 206.5 624.299988 C 212.699997 622.5 218.899994 620.400024 224.899994 618 C 226.5 617.400024 228.399994 615.299988 228.699997 613.599976 C 229.699997 606.5 230.699997 599.400024 230.600006 592.299988 C 230.5 588 227.800003 584 223 583 C 223 579.299988 223 575.700012 223 571.700012 C 222.800003 571.799988 223.100006 571.5 223.300003 571.400024 C 230.199997 570.200012 232.300003 565.900024 231.300003 559.299988 C 230.800003 556.099976 232.5 554.400024 235.5 552.900024 C 240.100006 550.700012 244.600006 548 248.399994 544.700012 C 249.800003 543.5 249.399994 540 248.699997 537.299988 C 249.800003 536.099976 251 534.799988 252.300003 533.400024 C 249.600006 533.700012 247.5 533.799988 245.399994 534.200012 C 244.300003 534.400024 242.899994 534.599976 242.199997 535.400024 C 241.100006 536.700012 240.399994 538.400024 239.600006 540 C 239.5 540.099976 240.5 540.700012 241 541.099976 C 241.899994 539.799988 242.699997 538.5 243.600006 537.299988 C 244 536.799988 244.5 536.400024 245.100006 536 C 247.399994 540 245.800003 543.700012 241.699997 544.299988 C 238.800003 544.700012 237.100006 542.400024 238.199997 538.900024 C 239.300003 535.5 240.800003 532.299988 242 529.299988 C 245.5 529.099976 249.100006 528.799988 253.600006 528.5 C 252.100006 525.900024 251.300003 524.599976 250.600006 523.400024 C 252.5 522.5 254.300003 521.599976 256.100006 520.700012 C 255.600006 520 255.199997 519.200012 254.699997 518.5 C 255.899994 517.599976 257.100006 516.700012 259.200012 515.099976 C 256.5 515.400024 254.899994 515.599976 253 515.799988 C 253.399994 514.200012 253.800003 512.900024 254.100006 511.700012 C 254.399994 510.600006 254.600006 509.5 254.899994 507.899994 C 256.5 509 257.600006 509.799988 259 510.700012 C 260.100006 509.700012 261.299988 508.600006 262.200012 507.799988 C 261.899994 513.900024 261.5 520.099976 261.200012 526.900024 C 264.299988 529.5 271.799988 528 271.799988 535.700012 C 284 531.299988 295.899994 527 307.799988 522.700012 C 307.700012 522.299988 307.700012 521.900024 307.600006 521.5 C 303.399994 521.900024 299.299988 522.200012 295.5 522.5 C 297.299988 519.400024 299.100006 516.400024 300.899994 513.400024 C 304.299988 511.799988 309.799988 512.700012 308.799988 505.700012 C 308.100006 506.700012 307.700012 507.299988 307.299988 507.899994 C 306.899994 507.799988 306.399994 507.700012 306 507.600006 C 307.100006 496 308.299988 484.299988 309.399994 473.399994 C 309.700012 473.200012 309 473.600006 307.899994 474.299988 C 308.100006 471.899994 308.200012 470.100006 308.299988 468.299988 C 307.5 470.5 300.5 470.899994 304.799988 473.5 C 303.5 487.5 302.200012 500.5 301 513.5 C 300.700012 511.399994 300.200012 509.299988 300.299988 507.299988 C 301.100006 492.5 302.299988 477.799988 302.899994 463 C 303.399994 450.799988 303.200012 438.599976 303.200012 426.400024 C 303.200012 423 302.5 419.599976 302.399994 416.200012 C 302.399994 415.099976 303.100006 413.799988 303.700012 412.799988 C 306.200012 408.599976 304.899994 406 300.100006 405.5 C 299.600006 405.400024 299.100006 405.299988 298.600006 405.200012 C 296.399994 405 294.200012 405.099976 292.100006 404.700012 C 290.299988 404.299988 288.100006 403.599976 287 402.299988 C 285.799988 400.799988 285.700012 398.400024 284.899994 395.799988 C 288.600006 394.099976 292.700012 392.099976 296.899994 390.299988 C 301.399994 388.400024 305.100006 385.900024 306.700012 380.900024 C 307.200012 379.299988 308.5 377.700012 310 376.799988 C 316.100006 372.900024 316.399994 371.900024 313.299988 367.799988 C 314.200012 363.099976 316.100006 359.299988 315.200012 356.299988 C 312.399994 346.5 315 337.400024 318.200012 328.5 C 325.299988 309.099976 339.600006 296.5 357.799988 287.700012 C 364.799988 284.299988 371.700012 281 379.100006 277.5 C 378 276.299988 377.200012 275.299988 376.399994 274.5 C 376.5 274 376.5 273.5 376.700012 273.400024 C 383.200012 268.700012 384.100006 261.099976 384.700012 254.299988 C 386 238.700012 386.100006 223.099976 386.600006 207.400024 C 387.100006 192.400024 387.700012 177.5 388.200012 162.5 C 388.200012 162 388.5 161.599976 389.5 161.099976 C 389.5 164.099976 389.600006 167.099976 389.5 170.099976 C 388.299988 197.700012 387 225.200012 386 252.799988 C 385.899994 255.400024 386.899994 258 388.299988 260.5 C 387.5 262.200012 386.600006 263.900024 385.600006 266 C 387.299988 266.5 388.600006 266.799988 390.899994 267.5 C 389.200012 269 387.899994 270.200012 386.700012 271.299988 C 388.399994 273.599976 390 276 391.899994 278.200012 C 392.700012 279.099976 394.200012 279.5 395.399994 279.700012 C 411.799988 282.200012 426.100006 289.5 438.799988 299.799988 C 447 306.5 452.5 314.799988 453.100006 326.099976 C 453.5 334.400024 454.399994 342.599976 452 350.799988 C 451.399994 352.799988 452.899994 355.299988 453.700012 358.799988 C 453.5 360.200012 452.700012 363.099976 452.899994 365.900024 C 453 367.599976 454.399994 370 455.899994 370.700012 C 461.100006 373 461.100006 376.799988 460.100006 382.599976 C 423.5 377.099976 387.200012 371.700012 350.899994 366.200012 C 350.600006 366.599976 350.399994 367 350.100006 367.299988 C 351 368.299988 351.700012 369.700012 352.799988 370.299988 C 354.100006 371 355.700012 371.200012 357.200012 371.200012 C 380.399994 371.799988 402.799988 378 425.600006 381.200012 C 425.899994 381.200012 426.100006 381.5 426.299988 382.5 C 401.399994 379 376.5 375.400024 351.600006 371.900024 C 351.399994 372.400024 351.299988 372.799988 351.100006 373.299988 C 352.299988 373.900024 353.5 375 354.799988 375.099976 C 371 377.200012 387.100006 379.099976 403.299988 381.299988 C 419.799988 383.599976 436.200012 386.200012 452.600006 388.599976 C 459.299988 389.599976 466.100006 390.400024 472.899994 391.299988 C 474.200012 391.5 475.399994 391.799988 475.700012 391.900024 C 471.600006 394.400024 467.299988 397.200012 462.799988 399.799988 C 461.600006 400.5 459.899994 401.5 458.700012 401.200012 C 436.899994 397 415 393.700012 393.100006 390.400024 C 383.700012 389 374.299988 388 364.799988 386.900024 C 363.299988 386.700012 361.799988 386.700012 360.399994 387.099976 C 358.299988 387.599976 355.5 388.299988 356.299988 391.200012 C 356.700012 392.5 358.899994 393.700012 360.5 394 C 367 395.200012 373.600006 396 380.100006 397.099976 C 381.899994 397.400024 383.700012 398.299988 385.5 398.900024 C 385.399994 399.299988 385.299988 399.799988 385.200012 400.200012 C 380.399994 399.400024 375.600006 398.599976 370.799988 397.799988 C 366.100006 397.099976 361.399994 395.099976 356.799988 397.099976 C 356.700012 397.599976 356.700012 398.200012 356.600006 398.700012 C 358.700012 399.299988 360.799988 400 363 400.400024 C 368.5 401.200012 374 401.799988 379.5 402.5 C 393.799988 404.400024 408.100006 406.400024 422.399994 408.400024 C 425.200012 408.799988 428 408.900024 430.799988 409.200012 L 430.700012 409.099976 C 432.399994 410.200012 434.100006 412.099976 435.899994 412.400024 C 443.700012 413.299988 451.600006 413.599976 460.600006 414.299988 C 453.700012 418.900024 446.200012 412.799988 440.700012 419.099976 C 446.200012 419.099976 451.799988 419.099976 457.299988 419.099976 C 457.299988 419.700012 457.299988 420.200012 457.299988 420.799988 C 454 420.799988 450.799988 421.099976 447.600006 420.700012 C 443.5 420.299988 441.899994 421.799988 441.799988 425.900024 C 441.399994 436.400024 440.700012 446.799988 440.200012 457.299988 C 439.5 472.100006 438.899994 486.899994 438.299988 501.700012 C 438.200012 503 438.5 504.299988 438.600006 505.600006 C 444.899994 506.299988 450.799988 506.899994 456.799988 507.600006 C 456.700012 508.200012 456.700012 508.799988 456.600006 509.399994 C 448.399994 508.399994 440.299988 507.5 432.100006 506.5 C 432.100006 506.700012 432 507 432 507.200012 C 432.5 507.299988 433 507.5 434.899994 508 C 432.299988 509.299988 430.600006 511.100006 429.100006 510.899994 C 404.399994 508 379.700012 504.899994 355 501.100006 C 363 501.799988 371.100006 502.600006 379.100006 503.299988 C 379.200012 502.799988 379.299988 502.200012 379.5 501.700012 C 372.5 497.600006 363.799988 499.899994 356.399994 496 C 358.200012 495.899994 359.899994 495.5 361.700012 495.600006 C 366.200012 496 370.600006 496.5 375.100006 497.100006 C 378.299988 497.5 379.600006 496.200012 379.700012 493 C 379.799988 478.899994 380.100006 464.700012 380.399994 450.600006 C 380.700012 437.900024 381 425.099976 381.399994 412.400024 C 381.399994 412.200012 381.399994 412.099976 381.399994 411.900024 C 381.600006 409.599976 382.700012 405.799988 381.799988 405.299988 C 379.299988 403.700012 376 403.099976 372.899994 402.799988 C 370.100006 402.5 367.299988 403.5 364.5 403.400024 C 362.200012 403.299988 360 402.5 357.799988 401.900024 C 356.200012 401.5 354.600006 400.299988 353.100006 400.599976 C 349.600006 401.200012 346.200012 402.5 342.799988 403.5 C 342.899994 404 343.100006 404.599976 343.200012 405.099976 C 345.799988 404.299988 348.399994 403.400024 351 402.599976 C 351.100006 402.900024 351.299988 403.200012 351.399994 403.5 C 350 404.5 348.700012 405.400024 347.299988 406.400024 C 347.5 406.599976 347.799988 407 347.899994 407 C 355.799988 404.200012 356.5 404.599976 356.299988 413 C 355.700012 437.5 354.899994 461.899994 354.399994 486.399994 C 354.299988 491.200012 355.200012 496.100006 350.299988 500 C 347.600006 498.600006 344.5 497 342.100006 495.700012 C 341.200012 498 340.399994 500.200012 339.299988 503.200012 C 339.600006 503.399994 340.700012 504.600006 341.5 504.399994 C 347.200012 503 347.200012 502.899994 350.899994 507.200012 C 351 505.899994 351 505 351 504 C 351.200012 504.100006 351.700012 504.100006 351.700012 504.200012 C 352 508 354.899994 507.899994 357.5 508.200012 C 373.899994 509.899994 390.299988 511.399994 406.700012 513.299988 C 423.700012 515.200012 440.700012 517.5 457.700012 519.599976 C 460.200012 519.900024 462.600006 520.099976 465.100006 520.299988 C 465.200012 520.700012 465.299988 521.200012 465.399994 521.599976 C 463.200012 522 460.899994 523 458.700012 522.799988 C 442.700012 521.400024 426.600006 519.900024 410.600006 518.299988 C 398.200012 517.099976 385.799988 515.599976 373.399994 514.599976 C 365.5 513.900024 357.5 513.799988 350.399994 513.5 C 350.899994 514.599976 351.700012 516.599976 352.799988 519.099976 C 353.299988 519.200012 354.399994 519.5 355.5 519.400024 C 360.299988 518.799988 362.600006 521.799988 362.799988 525.599976 C 363 529.099976 364.799988 529.200012 367.200012 529.5 C 371.299988 530 375.399994 530.400024 379.5 531 C 380.399994 531.099976 381.200012 532.099976 381.399994 533.700012 C 373.899994 532.799988 366.5 532 358.700012 531.099976 C 358.100006 528.200012 362.899994 524.200012 357.899994 522.099976 C 355 520.900024 351.5 521.099976 348.899994 520.700012 C 349.100006 519.299988 349.299988 517.799988 349.5 516.200012 C 346.700012 516.299988 342 515.5 341.299988 516.700012 C 339.5 520.200012 337.100006 519.299988 334.600006 519 C 331 518.700012 328.799988 519.799988 328.799988 523.799988 C 328.799988 526 328.700012 528.099976 328.399994 530.299988 C 327.899994 533.799988 330.200012 534.599976 332.700012 535.099976 C 339.799988 536.700012 339.799988 536.700012 338.799988 544 C 338.700012 544.599976 338.899994 545.200012 338.899994 545.799988 C 339.399994 545.900024 340 545.900024 340.5 546 C 340.799988 543 341 540 341.299988 536.5 C 345.299988 537 349.700012 537.700012 354.100006 538.099976 C 356.899994 538.299988 357.399994 539.599976 357 542.099976 C 356.5 544.799988 356.700012 546.799988 356.700012 548.700012 C 355.399994 546.099976 354.100006 543.400024 352.600006 540.299988 C 352 542.599976 351.5 544.400024 350.799988 547.400024 C 349.799988 544 349.200012 542 348.700012 540 C 348.399994 540.099976 348.200012 540.200012 347.899994 540.200012 C 347.5 542.200012 347.100006 544.099976 346.700012 546.099976 C 346.399994 546.099976 346.100006 546.099976 345.799988 546 C 345.5 543.900024 345.200012 541.799988 344.899994 539.700012 C 344.600006 539.700012 344.200012 539.700012 343.899994 539.700012 C 343.399994 542.099976 343 544.5 342.5 547.200012 C 347.5 547.799988 352.100006 548.299988 356.700012 548.700012 Z M 348 584.599976 L 348 584.599976 C 346.399994 585.700012 344.5 587.900024 343.299988 587.599976 C 338.799988 586.200012 338.799988 589.5 337.899994 592 C 337.399994 593.400024 337.100006 594.799988 336.600006 596.5 C 338.399994 596.700012 339.799988 596.900024 341.700012 597.099976 C 340.899994 595.799988 340.399994 594.900024 339.700012 593.700012 C 343.600006 593.200012 347 592 350.299988 592.400024 C 352.899994 592.700012 356 594.299988 357.700012 596.299988 C 360.899994 600 362.899994 600.799988 366.299988 598.700012 C 364.299988 597.099976 362.100006 595.299988 359.899994 593.5 C 360.899994 594.200012 361.799988 594.900024 362.799988 595.5 C 363.100006 595.200012 363.299988 594.799988 363.600006 594.5 C 362.200012 592.5 360.799988 590.400024 359.899994 589 C 363.799988 590.700012 367.899994 592.400024 372.299988 594.400024 C 370 594.599976 368.299988 594.799988 366.5 594.900024 C 366.5 595.200012 366.5 595.5 366.5 595.900024 C 367.899994 596.299988 369.299988 596.799988 370.600006 597.200012 C 370.399994 598.5 370.200012 599.599976 370 601.200012 C 371.399994 600.799988 372.200012 600.700012 372.899994 600.400024 C 373.700012 600 374.5 599.5 375.299988 599 C 376.899994 602.599976 378.200012 602.900024 384.899994 601.799988 C 386.100006 599.700012 387.299988 598 388.200012 596.200012 C 389.299988 594 391.600006 591.099976 391 589.599976 C 388.5 583.700012 392.899994 584.099976 396.299988 583.400024 C 395.799988 583.099976 395.200012 582.799988 394.700012 582.400024 C 396.200012 579.799988 397.700012 577.099976 399.100006 574.5 C 399.5 574.700012 400 574.900024 400.399994 575.099976 C 400.5 576.200012 400.600006 577.200012 400.600006 578.400024 C 402.600006 577.799988 404.200012 577.200012 406.299988 576.5 C 405.299988 575.200012 404.399994 574 402.799988 571.900024 C 405.299988 572.599976 406.600006 573 408.200012 573.400024 C 406.700012 566.5 414.200012 571.799988 415.299988 567.5 C 410.799988 567.5 406.399994 567.5 400.5 567.5 C 394.299988 563.299988 380.5 561.599976 376.399994 566.099976 C 375.799988 564.900024 375.200012 563.700012 374.700012 562.599976 C 374.5 563.200012 374.200012 563.700012 374 564.299988 C 372.799988 564.299988 371.600006 564.299988 370.299988 564.299988 C 373.200012 561.5 369.799988 561.200012 368.600006 561 C 362.700012 560.200012 356.799988 559.599976 350.899994 559.099976 C 343.5 558.5 336.200012 558.200012 328.100006 557.799988 C 327.600006 569.400024 327 581.799988 326.399994 595.5 C 328.600006 593.5 329.5 592.700012 330.899994 591.5 C 331.399994 593.299988 331.700012 594.599976 332 595.900024 C 332.399994 596 332.899994 596.200012 333.299988 596.299988 C 335 593.099976 336.600006 590 337.700012 587.799988 C 335.200012 587 332.899994 586.799988 331.200012 585.700012 C 330.299988 585.099976 330.299988 583.099976 329.5 580.400024 C 331.200012 582 331.899994 582.599976 332.700012 583.299988 C 334.5 579.799988 336.600006 579.400024 339.299988 582.700012 C 338.299988 579.200012 337.299988 575.799988 336.5 572.900024 C 334.100006 572.299988 332.299988 571.900024 330.600006 571.5 C 330.600006 571.099976 330.700012 570.599976 330.700012 570.200012 C 336 569 341.299988 567.799988 346.899994 566.5 C 346.100006 569.099976 345.5 570.900024 345.200012 572.099976 C 343 571.599976 340.899994 571.099976 338.700012 570.599976 C 338.600006 571 338.399994 571.400024 338.299988 571.799988 C 341 573.400024 343.799988 574.900024 346.5 576.5 L 346.700012 576.400024 C 344.799988 576.400024 342.899994 576.400024 340.700012 576.400024 C 340.899994 579.200012 341.100006 581.700012 341.299988 584.200012 C 342.5 584 343.799988 583.799988 345.100006 583.599976 C 345.399994 583.900024 345.700012 584.200012 345.899994 584.5 C 346.899994 584.200012 347.5 584.400024 348 584.599976 Z M 416.299988 555.700012 C 422.299988 556.200012 428.399994 556.700012 434.799988 557.299988 C 434.5 554.599976 434.299988 552.799988 434.100006 550.900024 C 433.700012 550.900024 433.299988 550.900024 432.899994 550.900024 C 432.399994 552.200012 432 553.599976 431.399994 555.400024 C 430.399994 553.200012 429.600006 551.700012 428.5 549.400024 C 427.600006 551.400024 427 552.599976 426.200012 554.400024 C 425.399994 552.299988 424.899994 550.799988 423.799988 548 C 422.899994 551 422.5 552.599976 421.600006 555.400024 C 421 552.5 420.700012 550.900024 420.299988 549 C 418.700012 551.599976 417.399994 553.700012 416.200012 555.700012 C 416.5 553.700012 416.700012 551.799988 417 549.799988 C 416.600006 549.700012 416.200012 549.599976 415.799988 549.5 C 415.200012 550.700012 414.5 551.799988 413.700012 553.299988 C 412.700012 551.400024 412 550 411 548.099976 C 410.200012 550 409.600006 551.200012 408.799988 552.900024 C 407.899994 550.799988 407.399994 549.400024 406.600006 547.700012 C 405.799988 549.5 405.299988 550.700012 404.399994 552.799988 C 403.600006 550.299988 403.100006 548.799988 402.299988 546.099976 C 401.399994 548.799988 400.799988 550.299988 400.399994 551.700012 C 398.299988 551.599976 396.600006 551.5 394.799988 551.400024 C 394.399994 550 394 548.5 393.299988 546.400024 C 392.200012 548.099976 391.600006 549.099976 390.799988 550.400024 C 390 548.599976 389.399994 547.200012 388.399994 544.900024 C 387.600006 548 387 550 386.399994 552.200012 C 396.600006 553.5 406.399994 554.599976 416.299988 555.700012 Z M 411 445.700012 C 407.399994 448.899994 410.899994 450.700012 412.799988 454.5 C 414.5 452.700012 415.600006 451.5 417.799988 449.299988 C 414.5 447.700012 412.600006 446.799988 410.799988 445.799988 C 411.399994 444.100006 412.200012 442.399994 412.600006 440.700012 C 413.399994 436.900024 414.5 433 410.200012 429.400024 C 407.399994 433.200012 404.799988 436.799988 402.100006 440.5 C 401.5 438.700012 400.299988 436.799988 400.5 435 C 400.799988 432.599976 402.100006 430.400024 403 428.099976 C 403.399994 429.599976 403.799988 431 404.399994 433.200012 C 406.399994 430.900024 407.799988 429.299988 409.200012 427.700012 C 408.799988 427.099976 408.5 426.5 408.100006 425.900024 C 406.399994 426.700012 404.700012 427.400024 402.899994 428.200012 C 403.5 424.799988 401.600006 424.099976 398.899994 424.599976 C 396.399994 425.099976 395.600006 424.099976 396 421.700012 C 397.399994 422.099976 398.899994 422.5 400.299988 422.900024 C 400.700012 421.099976 401.100006 419.299988 401.5 417.400024 C 396.700012 416.200012 396.899994 419.5 396.100006 421.799988 C 393.5 417.700012 391.299988 419.299988 388.700012 422.5 C 390.700012 424.200012 392.5 425.799988 394.299988 427.299988 C 394 427.799988 393.700012 428.200012 393.399994 428.700012 C 391.399994 427.299988 389.5 425.900024 387.5 424.5 C 382.899994 430 383.100006 430.799988 388.700012 433.299988 C 389.899994 433.900024 390.899994 435.400024 391.5 436.799988 C 392.600006 439 393.299988 441.399994 394.200012 443.700012 C 390.299988 442.5 388.5 444.700012 386.799988 448 C 388.700012 448.799988 390.299988 449.5 392.5 450.399994 C 393.299988 448.299988 394 446.600006 394.600006 444.899994 C 398 447 401.399994 449 405.600006 447.399994 C 404.600006 451.100006 403.5 454.899994 402.399994 459.100006 C 404.600006 459.200012 406 459.299988 407.100006 459.299988 C 408.5 454.899994 409.600006 450.799988 405.5 447.5 C 407.399994 447 409.200012 446.299988 411 445.700012 Z M 401.299988 599.599976 C 395.399994 609.099976 397.399994 618.5 396.899994 627.5 C 399.299988 628.099976 401.200012 628.5 403.100006 628.900024 C 403.100006 629.099976 403 629.299988 403 629.5 C 399.399994 629.299988 395.799988 629.200012 392.299988 629 C 392.299988 629.200012 392.299988 629.5 392.200012 629.700012 C 399.100006 630.400024 405.899994 631 414.200012 631.900024 C 411.100006 630.900024 409.399994 630.400024 407.700012 629.799988 C 407.799988 629.400024 407.899994 629 408 628.599976 C 415.5 631.299988 423.799988 629.200012 431.399994 633.299988 C 434.5 635 439.299988 633 443.299988 633.400024 C 458.299988 635.099976 473.299988 636.900024 488.200012 639.099976 C 493.200012 639.900024 495 638.299988 495 633.599976 C 493.399994 633.200012 491.700012 632.700012 489.5 632.099976 C 493.5 629 493.299988 626.299988 489.700012 624 C 491.700012 619.700012 493.799988 621.400024 495.899994 624.5 C 495.899994 620.299988 495 618.599976 490.799988 618.299988 C 482.899994 617.900024 475 616.299988 467.100006 615.200012 C 454.899994 613.5 442.700012 611.700012 430.5 610.400024 C 428.299988 610.099976 425.899994 611.599976 423.299988 612.299988 C 423.100006 610.700012 422.700012 608.200012 422.299988 605.299988 C 418.600006 604.900024 415 604.5 411.399994 604.099976 C 411.399994 603.900024 411.399994 603.700012 411.5 603.5 C 412.799988 603.200012 414.100006 602.900024 415.399994 602.5 C 415.399994 602.099976 415.399994 601.599976 415.399994 601.200012 C 410.5 600.799988 405.600006 600.200012 401.299988 599.599976 Z M 327.100006 618.599976 C 349 621.5 370.799988 624.400024 392.899994 627.299988 C 393 624.700012 393.100006 622 393.200012 620.599976 C 390.600006 619.799988 388.399994 619.200012 386.299988 618.400024 C 386 618.299988 386.200012 617.200012 386.100006 616.200012 C 387.200012 617 387.899994 617.599976 388.600006 618.200012 C 389 618.099976 389.399994 617.900024 389.799988 617.799988 C 389.399994 615.599976 389 613.5 388.399994 610.299988 C 390.299988 607.900024 390.600006 608 394 613.700012 C 393.799988 610.700012 393.700012 608.5 393.5 606 C 370.899994 603 348.600006 600 326.399994 597 C 326.200012 597.599976 326 598.200012 325.899994 598.799988 C 328.299988 599.799988 331.200012 602.200012 333.100006 601.599976 C 341.399994 599.299988 348.299988 602.599976 355.700012 605.599976 C 360.700012 602.5 368.5 604.599976 370.600006 609.900024 C 372.200012 607.400024 382.5 606.200012 384.399994 608.400024 C 385 609.099976 385.200012 610.200012 385.200012 611.200012 C 385.200012 613 384.899994 614.799988 384.799988 616.700012 C 384.600006 619.799988 383.100006 620.700012 380.100006 619.5 C 378.5 618.900024 376.600006 618.900024 374.899994 618.400024 C 373.100006 617.900024 371.299988 617.200012 368.899994 616.299988 C 366.299988 619 364.299988 618.700012 362.700012 615.599976 C 360.5 616.099976 358.700012 616.799988 356.899994 616.900024 C 355.100006 617 353.200012 616.700012 351.399994 616.400024 C 346.600006 615.700012 341.200012 616.299988 338.299988 611.599976 C 337.100006 612.400024 335.799988 613.200012 334.200012 614.200012 C 334.200012 610.599976 334.200012 608.099976 334.200012 605.5 C 333.799988 605.5 333.5 605.400024 333.100006 605.400024 C 332.5 607.299988 332 609.200012 331.200012 611.900024 C 330.899994 610 330.700012 609 330.5 607.799988 C 329.299988 611.5 328.299988 614.900024 327.100006 618.599976 Z M 430.100006 505.299988 C 436.100006 505.600006 434.200012 501.100006 434.399994 498 C 435.600006 479.600006 436.799988 461.100006 437.799988 442.700012 C 438.200012 436 437.899994 429.299988 437.899994 422.900024 C 435.799988 423.400024 434 423.900024 432 424.400024 C 432 427.299988 432.100006 430.5 432 433.799988 C 431.799988 444 431.799988 454.100006 431.200012 464.200012 C 430.799988 471.899994 429.100006 479.600006 428.799988 487.299988 C 428.5 493.200012 429.600006 499.100006 430.100006 505.299988 Z M 348.299988 485.5 C 348.899994 485.600006 349.600006 485.700012 350.200012 485.799988 C 350.799988 482.200012 351.299988 478.5 351.899994 474.899994 C 351.5 474.799988 351 474.600006 350.600006 474.5 C 349.5 475.299988 348.5 476.200012 346.799988 477.5 C 347.899994 471.399994 345 465.299988 350.700012 461 C 350.100006 460.100006 349.399994 459.299988 348.799988 458.399994 C 348.700012 458.200012 348.600006 458 348.5 457.799988 C 349.299988 457.399994 350 457.100006 350.200012 456.899994 C 346.5 450.899994 351.100006 446.100006 352 440.700012 C 350.700012 441 349.799988 441.200012 348.600006 441.5 C 348.299988 438.200012 348.100006 435.299988 347.799988 432.400024 C 347.5 432.400024 347.200012 432.400024 346.899994 432.400024 C 346.299988 449 345.700012 465.600006 345 482.899994 C 346 481.700012 346.5 481 347.5 479.899994 C 347.799988 482.200012 348 483.799988 348.299988 485.5 Z M 298.799988 636.099976 C 298.700012 637 298.5 637.900024 298.399994 638.900024 C 304.899994 640.099976 311.299988 641.5 317.799988 642.5 C 321.399994 643 325.200012 642.299988 326.799988 647 C 327 647.700012 329.399994 648.299988 330.299988 647.900024 C 332.399994 647 334.200012 645.5 336.299988 644.099976 C 332.899994 642.900024 329 642.299988 325.899994 640.5 C 322.600006 638.5 319.600006 638.099976 316.299988 639.700012 C 311.600006 642 307.899994 640.900024 304.200012 637.400024 C 303 636.200012 300.600006 636.5 298.799988 636.099976 Z M 363.600006 645.299988 C 363.5 644.599976 363.299988 643.900024 363.200012 643.099976 C 361.399994 643.400024 358.700012 643 358 644 C 355.600006 647.5 352.700012 645.599976 351.299988 644.099976 C 347.899994 640.400024 345.600006 641.099976 343.100006 644.799988 C 343.799988 645.400024 344.899994 645.900024 345.200012 646.700012 C 346.899994 650.900024 349.399994 651 352.899994 648.700012 C 353.899994 648 355.299988 648 356.600006 647.700012 C 358.899994 647 361.200012 646.099976 363.600006 645.299988 Z M 343.899994 432.5 C 343.399994 432.400024 342.899994 432.299988 342.399994 432.200012 C 340.799988 438.200012 339.299988 444.100006 337.600006 450.600006 C 343.600006 448.100006 346.100006 439.899994 343.899994 432.5 Z M 369.299988 550 C 373.299988 550.5 377.100006 551.200012 381 551.599976 C 385.399994 552 386.100006 550.599976 384.299988 545.900024 C 383.799988 547.5 383.299988 549 382.5 551.400024 C 381.600006 548.700012 381 547 380.200012 544.5 C 379.200012 546.599976 378.600006 547.900024 377.600006 549.900024 C 377.100006 547.5 376.700012 546 376.200012 543.599976 C 375 545.5 374.200012 546.599976 373.299988 547.900024 C 372.600006 546.200012 372 544.799988 370.899994 542.299988 C 370.200012 545.599976 369.799988 547.700012 369.299988 550 Z M 316.299988 432.299988 C 315.899994 439.299988 315.600006 446.299988 315.100006 454.399994 C 320 448.899994 320.700012 438.400024 316.299988 432.299988 Z M 307 671.400024 C 307.399994 671.5 307.899994 671.599976 308.299988 671.700012 C 307.799988 677.299988 307.299988 682.900024 306.799988 688.5 C 307.399994 688.5 308 688.599976 308.600006 688.599976 C 309 684.799988 308.899994 680.799988 309.799988 677.099976 C 311.200012 671.299988 308.799988 668.299988 303.5 666.799988 C 303.100006 669.799988 302.700012 672.700012 302.200012 676.700012 C 304.200012 674.5 305.600006 673 307 671.400024 Z M 315.600006 516.299988 C 313.700012 517.599976 311.700012 519 309.799988 520.299988 C 310.100006 520.900024 310.5 521.599976 310.799988 522.200012 C 316.299988 520.299988 321.700012 518.5 327.200012 516.599976 C 323.5 516.599976 318.899994 508.700012 315.600006 516.299988 Z M 382.5 448.899994 C 385.299988 456.899994 393.700012 460 400.899994 464.100006 C 402.399994 465 405.299988 463.399994 408.100006 462.799988 C 402.600006 461.200012 397.399994 460.5 393.200012 458.100006 C 388.899994 455.799988 385.600006 451.700012 382.5 448.899994 Z M 376.799988 649.299988 C 379.799988 650 382.899994 649.799988 384.799988 651.200012 C 388.5 654 388.299988 654.400024 391.600006 651.700012 C 384.600006 646.099976 378.600006 644.900024 376.799988 649.299988 Z M 262 538.700012 C 264.700012 538.5 267.100006 538.299988 269.899994 538.099976 C 266.700012 536 263.899994 534.099976 260.200012 531.599976 C 258.700012 532.700012 256.5 534.299988 254.300003 535.900024 C 254.699997 536.5 255.100006 537.099976 255.5 537.700012 C 257.200012 536.700012 258.899994 535.700012 260.799988 534.599976 C 261.299988 536.200012 261.700012 537.599976 262 538.700012 Z M 454.399994 558.599976 C 453.700012 556.799988 453 555.200012 452.100006 553.099976 C 451.100006 555.099976 450.399994 556.5 449.200012 558.900024 C 448.700012 556.200012 448.399994 554.599976 448 552.200012 C 447 554.299988 446.399994 555.5 445.399994 557.5 C 444.399994 555 443.799988 553.400024 443.200012 551.900024 C 442.899994 551.900024 442.5 552 442.200012 552 C 442.100006 554.099976 442 556.200012 441.899994 558.599976 C 446.299988 558.599976 450.299988 558.599976 454.399994 558.599976 Z M 297.200012 599.700012 C 297.200012 602.299988 296.399994 606.599976 297.299988 607 C 300.5 608.400024 304.200012 608.400024 307.799988 608.900024 C 307.799988 608.599976 307.799988 608.299988 307.799988 608 C 304.700012 605.5 301.600006 603 297.200012 599.700012 Z M 304.399994 455.600006 C 304.899994 455.600006 305.399994 455.600006 305.799988 455.600006 C 305.799988 448.299988 305.799988 441 305.799988 433.700012 C 305.299988 433.700012 304.799988 433.700012 304.399994 433.700012 C 304.399994 441 304.399994 448.299988 304.399994 455.600006 Z M 316 593.599976 C 316 593 316.100006 592.400024 316.100006 591.900024 C 309 591.200012 302 590.599976 294.899994 589.900024 C 294.899994 590.5 294.799988 591.200012 294.799988 591.799988 C 301.899994 592.400024 308.899994 593 316 593.599976 Z M 425.799988 443.200012 C 422.700012 451.299988 419 458.200012 411.399994 462.100006 C 419.5 460.5 424.799988 453.700012 425.799988 443.200012 Z M 340 406 C 339.799988 405.5 339.600006 405 339.399994 404.400024 C 333.100006 407 326.700012 409.700012 320.399994 412.299988 C 320.700012 412.900024 320.899994 413.5 321.200012 414.099976 C 327.299988 411.400024 333.600006 408.700012 340 406 Z M 360.600006 364.299988 C 360.700012 364.799988 360.799988 365.299988 360.899994 365.799988 C 364.5 366.400024 368.200012 366.900024 372.5 367.599976 C 371.100006 361.900024 366.799988 363.700012 364.100006 362.700012 C 363.200012 362.400024 361.799988 363.700012 360.600006 364.299988 Z M 341.200012 466.200012 C 341.100006 465.799988 341.100006 465.399994 341 465 C 330.100006 467 330.5 457.399994 327 451.600006 C 328 457.299988 328.5 463.299988 334.299988 466.299988 C 336.200012 467.200012 338.899994 466.299988 341.200012 466.200012 Z M 294.899994 611.5 C 294.899994 605.599976 294.899994 600 294.899994 594.400024 C 292.100006 599.400024 292.5 609.400024 294.899994 611.5 Z M 362.100006 646.400024 C 362 646.900024 361.899994 647.5 361.799988 648 C 365.700012 647.299988 368.299988 655.200012 374.200012 648.900024 C 369.5 647.900024 365.799988 647.200012 362.100006 646.400024 Z M 342.799988 475.100006 C 339.399994 474.799988 336 474.600006 332.100006 474.200012 C 336 480 337.5 480.200012 342.799988 475.100006 Z M 427.399994 569 C 427.399994 573.099976 427.399994 576.700012 427.399994 581.5 C 431.299988 576.400024 431.100006 571.400024 427.399994 569 Z M 367.200012 754.799988 C 366.600006 755.200012 366.100006 755.599976 365.5 756 C 367.399994 758.299988 369.299988 760.599976 371.700012 763.5 C 373.899994 757.400024 370.700012 756 367.200012 754.799988 Z M 517.599976 567.5 C 520.599976 567.700012 522.799988 567.799988 525.5 568 C 524.5 565.900024 523.900024 564.299988 523 562.400024 C 522.5 564.200012 522.099976 565.5 521.400024 568 C 520.400024 565.099976 519.900024 563.5 519.400024 561.900024 C 519.099976 561.900024 518.799988 561.900024 518.599976 561.900024 C 518.200012 563.5 517.900024 565.099976 517.599976 567.5 Z M 340.100006 481.799988 C 338.600006 485.399994 337.600006 487.899994 336.5 490.399994 C 342 490.700012 342.100006 490.600006 340.100006 481.799988 Z M 336.799988 546.799988 C 336.399994 543.5 336.200012 541.099976 335.899994 538.599976 C 335.600006 538.599976 335.299988 538.700012 335 538.700012 C 334.100006 541.099976 333.100006 543.5 332.200012 545.799988 C 332.700012 545.900024 334.100006 546.200012 336.799988 546.799988 Z M 406.200012 418.200012 C 405.700012 418.400024 405.100006 418.700012 404.600006 418.900024 C 405.200012 420.5 405.799988 422.099976 406.399994 423.700012 C 408 423.099976 409.600006 422.400024 412.299988 421.299988 C 409.299988 419.799988 407.799988 419 406.200012 418.200012 Z M 417.600006 437.700012 C 418.299988 437.299988 419 436.900024 419.700012 436.5 C 418.899994 434.799988 418.100006 433.099976 417.299988 431.299988 C 416.200012 432 415 432.599976 413.899994 433.299988 C 415.200012 434.799988 416.399994 436.200012 417.600006 437.700012 Z M 312.700012 589.299988 C 312.700012 588.799988 312.700012 588.400024 312.700012 587.900024 C 307.799988 587.400024 302.799988 587 297.899994 586.5 C 297.899994 587 297.799988 587.5 297.799988 588 C 302.799988 588.400024 307.700012 588.900024 312.700012 589.299988 Z M 400.299988 454.399994 C 400.299988 452.200012 400.299988 450.600006 400.299988 449.100006 C 399.799988 448.799988 399.399994 448.600006 398.899994 448.299988 C 397.399994 449.600006 395.799988 450.799988 394.299988 452.100006 C 396.299988 453.799988 397.100006 454 397.899994 454.200012 C 398.5 454.200012 399.100006 454.299988 400.299988 454.399994 Z M 321.299988 409.400024 C 313.5 409.299988 313.299988 409.5 311.700012 413.900024 C 315.299988 412.200012 318.299988 410.799988 321.299988 409.400024 Z M 339 460.299988 C 343.899994 455.100006 343.899994 455.100006 339.899994 451.200012 C 339.5 454.5 339.299988 457.100006 339 460.299988 Z M 285.399994 615.400024 C 285.399994 615.799988 285.299988 616.299988 285.299988 616.700012 C 289.899994 617.200012 294.5 617.599976 299.100006 618.099976 C 299.100006 617.799988 299.200012 617.400024 299.200012 617.099976 C 294.600006 616.5 290 616 285.399994 615.400024 Z"/>
            <path id="path1" fill="#ffffff" stroke="none" d="M 408.399994 709.900024 C 407.200012 713.099976 406 716.400024 404.399994 720.400024 C 403 715.299988 401.899994 711 400.700012 706.799988 C 400.100006 706.799988 399.5 706.900024 398.899994 706.900024 C 398.299988 725 397.700012 743.099976 397.200012 761.099976 C 396.799988 761.099976 396.399994 761.200012 396 761.200012 C 395.899994 759.599976 395.700012 757.900024 395.700012 756.299988 C 396 735.299988 396.200012 714.400024 396.600006 693.400024 C 396.700012 686 397.5 678.599976 397.5 671.099976 C 397.5 669.400024 396 667 394.5 666.299988 C 392.200012 665.200012 389.299988 665.299988 386.700012 665 C 379.299988 664 371.899994 663 364.5 662 C 364.5 661.299988 364.600006 660.700012 364.600006 660 C 367.200012 660.099976 369.799988 660.200012 372.399994 660.400024 C 383.100006 661.299988 393.799988 662.099976 404.5 663.299988 C 408.200012 663.700012 411.799988 665.099976 415.299988 666.299988 C 418.799988 667.5 418.799988 670.200012 417.100006 673.799988 C 415.5 671.599976 414.200012 669.900024 413 668.200012 C 412.5 668.400024 412 668.599976 411.5 668.700012 C 412.100006 670.400024 412.600006 672.099976 413.299988 673.700012 C 414.200012 675.900024 416.299988 678 416.200012 680.099976 C 415.399994 699.5 414.200012 718.900024 413 738.299988 C 413 738.700012 412.700012 739.200012 411.799988 739.599976 C 406.899994 730.200012 406.600006 720.5 410.5 710.299988 C 409.799988 710.200012 409.100006 710 408.399994 709.900024 Z M 413 676.700012 C 412 676.5 411 676.299988 410 676 C 409.399994 679.5 408.899994 683 408.299988 686.5 C 409 686.599976 409.600006 686.799988 410.299988 686.900024 C 411.299988 683.5 412.200012 680.099976 413 676.700012 Z"/>
            <path id="path2" fill="#ffffff" stroke="none" d="M 517.700012 525.599976 C 517.599976 526.099976 517.299988 526.599976 517.400024 527.099976 C 518.099976 531.900024 517.099976 535.299988 511.899994 535.099976 C 512.400024 537.299988 512.900024 539.299988 513.599976 541.900024 C 516.200012 542.5 519.900024 543.299988 523.599976 544 C 523.5 544.400024 523.400024 544.799988 523.299988 545.200012 C 514.700012 543.299988 506.100006 541.5 497.399994 539.599976 C 496.700012 542.700012 496.100006 544.900024 495.5 547.400024 C 491.100006 546.900024 487 546.5 484.100006 546.200012 C 486.700012 541.900024 489.600006 537.200012 492.5 532.5 C 493.200012 532.799988 493.899994 533.200012 494.700012 533.5 C 493.200012 533.299988 491.700012 532.900024 490.200012 532.799988 C 487.5 532.700012 485.799988 531.5 486.600006 528.799988 C 487.899994 524.700012 489.200012 520.599976 494.299988 519.400024 C 497.100006 518.700012 499.700012 517.299988 498 513.5 C 497.600006 512.700012 497.700012 511.5 497.899994 510.600006 C 499.100006 505.799988 500.399994 501.100006 501.5 496.799988 C 502.399994 497.200012 504.399994 498.100006 507.5 499.5 C 506.200012 502.700012 504.5 506.899994 502.700012 511.600006 C 504.799988 511.899994 506.700012 512.200012 508.899994 512.5 C 508.700012 513.900024 508.5 515.299988 508.200012 516.700012 C 508.600006 516.400024 509 516.099976 509.399994 515.900024 C 512.200012 519.200012 515 522.5 517.900024 525.900024 C 516.5 525.099976 514.700012 524.700012 513.900024 523.5 C 511.799988 520.400024 509.799988 520.700012 508.299988 522.200012 C 510.399994 524.700012 512.299988 527 514.400024 529.5 C 515.400024 528.299988 516.5 526.900024 517.700012 525.599976 Z M 511.299988 530 C 509.700012 528.700012 508.399994 527.200012 507.899994 527.5 C 506.5 528.200012 505.5 529.5 504.399994 530.599976 C 505.5 531.400024 506.5 532.700012 507.600006 532.700012 C 508.600006 532.700012 509.600006 531.400024 511.299988 530 Z M 503.299988 520.900024 C 502.100006 521.900024 501.299988 522.5 500.600006 523.200012 C 499.5 524.400024 498.5 525.799988 497.399994 527.099976 C 497.899994 527.400024 498.799988 528.099976 498.899994 528 C 500.5 526.599976 502.100006 525.099976 503.5 523.5 C 503.899994 523.099976 503.5 522.200012 503.299988 520.900024 Z"/>
            <path id="path3" fill="#ffffff" stroke="none" d="M 438.399994 545.200012 C 438 538.5 441 530.799988 432.799988 528.900024 C 430 528.200012 426.5 530.700012 422.799988 531.900024 C 422.5 531.599976 421.600006 530.599976 419.399994 528.299988 C 418.600006 533.099976 418 536.5 417.399994 540 C 417.100006 540.099976 416.799988 540.099976 416.600006 540.200012 C 416 537.400024 415.399994 534.599976 414.700012 531.400024 C 409.100006 530 403 528.5 396.899994 527 C 417.899994 527.400024 439.100006 524.5 460 534.299988 C 451.100006 534.599976 452.100006 540.799988 452.5 546.700012 C 451.799988 546.599976 451 546.5 450.299988 546.400024 C 450.100006 543.5 449.899994 540.599976 449.600006 537.799988 C 449.399994 536.200012 448.899994 534.599976 448.600006 533 C 447 533.599976 444.600006 533.599976 443.799988 534.799988 C 441.799988 537.5 440.5 540.799988 438.399994 545.200012 Z"/>
            <path id="path4" fill="#ffffff" stroke="none" d="M 392.200012 684.200012 C 392 683.5 391.600006 682.700012 391.600006 682 C 391.600006 674.200012 391.600006 674.200012 384.200012 673.299988 C 378.799988 672.599976 373.399994 671.799988 368 671 C 367 670.799988 366 670.299988 365.200012 669.299988 C 375.200012 667 384.899994 670.299988 395.5 670.200012 C 394.899994 675.099976 394.299988 679.799988 393.799988 684.5 C 393.200012 684.299988 392.700012 684.299988 392.200012 684.200012 Z"/>
            <path id="path5" fill="#ffffff" stroke="none" d="M 501.399994 623.599976 C 501.5 622.5 501.700012 621.099976 502 619.099976 C 507.600006 619.599976 513 619.900024 518.400024 620.799988 C 519.599976 621 521.299988 623.200012 521.5 624.5 C 521.900024 628.5 521.599976 632.700012 521.599976 636.700012 C 520.799988 636.900024 520 637 519.299988 637.200012 C 518.700012 635.299988 518 633.299988 517.700012 631.400024 C 517.400024 629.200012 517.599976 626.900024 517.599976 624.400024 C 512.099976 624.099976 507 623.900024 501.399994 623.599976 Z"/>
            <path id="path6" fill="#ffffff" stroke="none" d="M 419.899994 667.099976 C 433.5 668.5 447.100006 669.799988 461.899994 671.299988 C 458.299988 673.200012 455.799988 674.5 452.899994 676.099976 C 445.100006 667.200012 434.200012 672.5 424.5 670.700012 C 422.799988 670.400024 421.100006 669.900024 419.5 669.5 C 419.5 668.700012 419.700012 667.900024 419.899994 667.099976 Z"/>
            <path id="path7" fill="#ffffff" stroke="none" d="M 430.799988 409.900024 C 430.799988 408.599976 430.799988 407.200012 430.799988 407.400024 C 417.299988 405.099976 404.700012 403 392.100006 400.900024 C 392.100006 400.700012 392.200012 400.5 392.200012 400.299988 C 406.799988 401.700012 421.399994 403 436 404.400024 C 436.200012 405.200012 436.399994 406 436.600006 406.900024 C 434.600006 407.900024 432.600006 408.900024 430.700012 409.900024 C 430.600006 409.799988 430.799988 409.900024 430.799988 409.900024 Z"/>
            <path id="path8" fill="#ffffff" stroke="none" d="M 451.700012 404.5 C 430.5 401.700012 409.200012 398.799988 388 396 C 388.100006 395.400024 388.100006 394.900024 388.200012 394.299988 C 409.399994 397.200012 430.600006 400 451.799988 402.900024 C 451.799988 403.5 451.700012 404 451.700012 404.5 Z"/>
            <path id="path9" fill="#ffffff" stroke="none" d="M 523.5 619.299988 C 518.200012 618.299988 513.200012 617.400024 506.700012 616.299988 C 511.700012 616.299988 515.299988 616.299988 518.900024 616.299988 C 518.900024 616 518.900024 615.700012 518.900024 615.5 C 516.700012 615.200012 514.400024 614.799988 512.200012 614.5 C 512.400024 613.900024 512.5 613.299988 512.700012 612.700012 C 516.099976 613.700012 519.5 614.799988 523.5 616 C 523.5 612.5 523.5 608.299988 523.5 604 C 524 604 524.5 604 525 604 C 525 607.700012 525.099976 611.400024 525 615.099976 C 524.900024 619.299988 523.900024 624 530.299988 624.700012 C 528.900024 624.700012 527.5 624.700012 525.400024 624.700012 C 525 629.099976 524.599976 633.400024 524.099976 637.799988 C 523.900024 637.799988 523.700012 637.799988 523.599976 637.799988 C 523.5 631.700012 523.5 625.599976 523.5 619.299988 Z"/>
            <path id="path10" fill="#ffffff" stroke="none" d="M 568.5 673.299988 C 563.599976 673.700012 559.700012 674.099976 554.700012 674.5 C 556.299988 672.900024 556.900024 672.200012 557.799988 671.200012 C 555 669.299988 552.400024 667.599976 549.700012 665.799988 C 556.099976 663.599976 560.200012 665.200012 563.5 670.5 C 564.099976 671.700012 566 672 568.5 673.299988 Z"/>
            <path id="path11" fill="#ffffff" stroke="none" d="M 390.600006 102 C 392.899994 110.299988 395.5 119.599976 392.100006 129 C 391.600006 129 391.100006 129 390.600006 129 C 390.600006 119.700012 390.600006 110.299988 390.600006 102 Z"/>
            <path id="path12" fill="#ffffff" stroke="none" d="M 358.100006 536.599976 C 371 538.200012 383.799988 539.700012 396.700012 541.299988 C 396.600006 541.700012 396.600006 542.200012 396.5 542.599976 C 383.600006 541.099976 370.799988 539.5 357.899994 538 C 358 537.599976 358.100006 537.099976 358.100006 536.599976 Z"/>
            <path id="path13" fill="#ffffff" stroke="none" d="M 539 653.5 C 536 655.099976 532.900024 656.700012 529.900024 658.299988 C 529.599976 657.099976 528.599976 655.700012 529 654.799988 C 531.099976 649.900024 534.799988 651.099976 539 653.5 Z"/>
            <path id="path14" fill="#ffffff" stroke="none" d="M 421.200012 697.099976 C 421.200012 704.200012 421.200012 711.200012 421.200012 718.299988 C 420.899994 718.299988 420.700012 718.299988 420.399994 718.200012 C 420.399994 711.099976 420.399994 704.099976 420.399994 697 C 420.700012 697 421 697.099976 421.200012 697.099976 Z"/>
            <path id="path15" fill="#ffffff" stroke="none" d="M 383.5 535.5 C 386.600006 535.099976 388.399994 534.900024 390.200012 534.700012 C 389 532.900024 386.899994 531.099976 387.200012 530 C 387.700012 528.299988 389.899994 527.200012 392.5 524.900024 C 392.100006 529.900024 391.799988 533.200012 391.5 536.700012 C 389.200012 536.400024 387 536.099976 383.5 535.5 Z"/>
            <path id="path16" fill="#ffffff" stroke="none" d="M 551.299988 641.400024 C 553.299988 638.799988 554.599976 636.200012 551.700012 633.299988 C 551.299988 632.900024 551.400024 631.299988 551.900024 630.900024 C 552.400024 630.400024 554.299988 630.599976 554.299988 630.700012 C 554.900024 633.299988 555.700012 636.099976 555.5 638.700012 C 555.400024 640 553.599976 641.299988 552.5 642.5 C 552.200012 642.200012 551.700012 641.799988 551.299988 641.400024 Z"/>
            <path id="path17" fill="#ffffff" stroke="none" d="M 470.399994 545.099976 C 469.600006 545.599976 468.200012 546.599976 466.5 547.799988 C 465.100006 543.5 463.799988 539.299988 462.399994 535.200012 C 464.899994 535.5 466.799988 537 467.600006 540.299988 C 468 542 469.399994 543.400024 470.399994 545.099976 Z"/>
            <path id="path18" fill="#ffffff" stroke="none" d="M 392.399994 73.200012 C 392.100006 77.299988 391.799988 81.299988 391.299988 86.700012 C 386.600006 76 386.600006 76 390.5 73 C 391.100006 73.099976 391.700012 73.099976 392.399994 73.200012 Z"/>
            <path id="path19" fill="#ffffff" stroke="none" d="M 401.299988 542.299988 C 402.700012 541.900024 404 541.400024 405.5 541 C 405.5 538.5 405.5 536.400024 405.5 534.200012 C 406 533.900024 406.5 533.700012 407 533.400024 C 406.600006 538.799988 408.100006 542.599976 414.200012 542.5 C 414 542.900024 413.899994 543.299988 413.700012 543.700012 C 409.600006 543.400024 405.399994 543.200012 401.299988 542.900024 C 401.200012 542.700012 401.299988 542.5 401.299988 542.299988 Z"/>
            <path id="path20" fill="#ffffff" stroke="none" d="M 546.599976 640.599976 C 546.5 639.599976 546.400024 638.700012 546.299988 637.700012 C 546.200012 636.400024 546.299988 635.099976 546 633.799988 C 545.700012 632.599976 544.900024 631.599976 544.400024 630.5 C 545.099976 630.200012 546.299988 629.5 546.400024 629.599976 C 547.200012 630.900024 548.299988 632.200012 548.5 633.700012 C 548.799988 636 548.599976 638.299988 548.599976 640.599976 C 547.900024 640.599976 547.299988 640.599976 546.599976 640.599976 Z"/>
            <path id="path21" fill="#ffffff" stroke="none" d="M 535.799988 629.700012 C 536.799988 629.099976 538.099976 628 538.799988 628.200012 C 539.799988 628.5 540.799988 630 541 631 C 541.200012 633.400024 541.099976 635.900024 540.700012 638.299988 C 540.599976 639.099976 539.200012 639.700012 538.900024 639.900024 C 538.400024 636.400024 538 633.200012 537.599976 630 C 537 629.900024 536.400024 629.799988 535.799988 629.700012 Z"/>
            <path id="path22" fill="#ffffff" stroke="none" d="M 437.799988 511.899994 C 445.399994 512.700012 453 513.599976 460.700012 514.400024 C 460.700012 514.799988 460.600006 515.299988 460.600006 515.700012 C 453 514.900024 445.399994 514 437.700012 513.200012 C 437.700012 512.700012 437.700012 512.299988 437.799988 511.899994 Z"/>
            <path id="path23" fill="#ffffff" stroke="none" d="M 510.899994 654.599976 C 511.200012 652 511.600006 649.5 511.899994 646.900024 C 512.900024 647.299988 514.099976 647.5 515 648.200012 C 516.099976 649 516.799988 650.200012 517.700012 651.200012 C 516.5 651.900024 515.200012 652.599976 514 653.200012 C 513.099976 653.799988 512 654.099976 510.899994 654.599976 Z"/>
            <path id="path24" fill="#ffffff" stroke="none" d="M 526.900024 628.5 C 528.099976 628.099976 529.700012 626.900024 530.5 627.299988 C 533.799988 628.799988 533.900024 633.900024 531 638.400024 C 529 635.799988 534.099976 630.099976 526.599976 630.099976 C 526.700012 629.599976 526.799988 629.099976 526.900024 628.5 Z"/>
            <path id="path25" fill="#ffffff" stroke="none" d="M 389.100006 155.400024 C 389.100006 148 389.100006 140.5 389.100006 133.099976 C 389.399994 133.099976 389.799988 133.099976 390.100006 133.099976 C 390.100006 140.599976 390.100006 148 390.100006 155.5 C 389.799988 155.5 389.399994 155.5 389.100006 155.400024 Z"/>
            <path id="path26" fill="#ffffff" stroke="none" d="M 563 641.200012 C 561.900024 638.799988 560.900024 636.400024 559.400024 633 C 560.299988 632.799988 561.700012 632.599976 563.200012 632.299988 C 563.700012 635.200012 564.200012 638.200012 564.700012 641.099976 C 564.099976 641.200012 563.599976 641.200012 563 641.200012 Z"/>
            <path id="path27" fill="#ffffff" stroke="none" d="M 575.200012 635.299988 C 576.400024 635 577.599976 634.700012 578.799988 634.299988 C 579.299988 636.400024 580.200012 638.5 580.200012 640.700012 C 580.200012 641.900024 578.900024 643.099976 577.700012 644 C 578.400024 640.700012 581.400024 637.299988 575.200012 635.299988 Z"/>
            <path id="path28" fill="#ffffff" stroke="none" d="M 568.799988 642.900024 C 571.200012 639.5 572.900024 636.599976 565.599976 634.900024 C 568.299988 633.700012 569.5 633.299988 570.599976 632.799988 C 571.200012 634.200012 572.200012 635.599976 572.299988 637 C 572.5 639.400024 573.299988 642.5 568.799988 642.900024 Z"/>
            <path id="path29" fill="#ffffff" stroke="none" d="M 447 407.200012 C 451.200012 407.400024 455.399994 407.700012 459.600006 407.900024 C 459.600006 408.400024 459.600006 408.799988 459.600006 409.299988 C 455.399994 409 451.200012 408.799988 447 408.5 C 447 408.099976 447 407.599976 447 407.200012 Z"/>
            <path id="path30" fill="#ffffff" stroke="none" d="M 586.799988 645.200012 C 586.099976 642.5 585.5 640.299988 584.599976 637 C 584.400024 637.099976 586 635.900024 586.5 636.299988 C 590 639.099976 587.799988 642.099976 586.799988 645.200012 Z"/>
            <path id="path31" fill="#ffffff" stroke="none" d="M 521 652.299988 C 521.400024 654 521.700012 655.700012 522.200012 658 C 520.400024 657.900024 518.900024 657.700012 516.400024 657.599976 C 517.799988 655.299988 518.799988 653.700012 519.799988 652.099976 C 520.200012 652.099976 520.599976 652.200012 521 652.299988 Z"/>
            <path id="path32" fill="#ffffff" stroke="none" d="M 346.899994 576 C 349.299988 577 350.5 576.400024 349.899994 573.700012 C 348.5 567.099976 350.600006 563.799988 357.299988 563.400024 C 361.700012 563.099976 366.100006 563.700012 370.600006 563.900024 C 366.299988 569.299988 372.299988 568 374.5 569.299988 C 372.5 571.099976 367.399994 569 368.700012 574.200012 C 367.100006 574.5 365.5 574.799988 363.899994 575.099976 C 363.899994 575.400024 363.899994 575.799988 363.899994 576.099976 C 365.100006 576.5 366.299988 576.799988 368.5 577.400024 C 365.399994 578.599976 363.100006 579.599976 360.799988 580.5 C 360.200012 579.599976 359.399994 577.900024 359 578 C 355.399994 578.700012 350.5 576.599976 349 582.400024 C 348.799988 583.099976 347.399994 583.400024 346.5 583.900024 C 346.200012 583.599976 345.899994 583.299988 345.700012 583 C 346.200012 580.599976 346.700012 578.200012 347.200012 575.900024 L 346.899994 576 Z"/>
            <path id="path33" fill="#ffffff" stroke="none" d="M 352 589.599976 C 350.700012 587.900024 349.299988 586.299988 348 584.599976 C 348 584.599976 348 584.5 348 584.5 C 349 583.799988 350.399994 583.400024 351.100006 582.400024 C 353 579.900024 354.600006 578.400024 356.700012 582.200012 C 356.799988 582.400024 358.899994 581.599976 360.100006 581.299988 C 357.399994 584.099976 354.700012 586.799988 352 589.599976 Z"/>
            <path id="path34" fill="#ffffff" stroke="none" d="M 337.100006 627.5 C 338.899994 627.5 340.799988 627.400024 342.600006 627.700012 C 343.100006 627.799988 344 629.599976 343.700012 630 C 343.100006 631 341.899994 632.400024 341 632.299988 C 339.399994 632.099976 337.799988 631.200012 336.5 630.200012 C 336.200012 630 337 628.200012 337.299988 627.099976 C 337.399994 627.200012 337.100006 627.5 337.100006 627.5 Z"/>
            <path id="path35" fill="#ffffff" stroke="none" d="M 441.100006 651 C 439.899994 652.599976 438.700012 654.200012 436.899994 656.700012 C 434 655.200012 430.600006 653.5 427.200012 651.700012 C 427.5 650.900024 427.700012 650 428 649.200012 C 432.399994 649.900024 436.799988 650.5 441.200012 651.200012 C 441.200012 651.200012 441.100006 651 441.100006 651 Z"/>
            <path id="path36" fill="#ffffff" stroke="none" d="M 499.5 663.700012 C 496.5 662.599976 493.399994 661.599976 490.600006 660.299988 C 490.100006 660.099976 490.399994 658.099976 490.399994 656.900024 C 493 657.099976 495.799988 656.900024 498.100006 657.799988 C 499.5 658.400024 500.200012 660.799988 501.100006 662.299988 C 500.5 662.700012 500 663.200012 499.5 663.700012 Z"/>
            <path id="path37" fill="#ffffff" stroke="none" d="M 359.200012 638.599976 C 362.799988 637.700012 366.700012 637.200012 367 632.099976 C 367 631.700012 368.899994 630.799988 369.600006 631 C 371.200012 631.599976 372.700012 632.700012 374.200012 633.700012 C 373.200012 634.400024 372.200012 635.099976 371.200012 635.900024 C 370.100006 636.799988 369.100006 637.900024 367.5 639.5 C 365.399994 639.200012 362.299988 638.900024 359.200012 638.599976 C 359.200012 638.599976 359.200012 638.599976 359.200012 638.599976 Z"/>
            <path id="path38" fill="#ffffff" stroke="none" d="M 414.200012 642.099976 C 415 641.900024 416 641.200012 416.5 641.5 C 419.899994 643.599976 423.100006 646.400024 426.799988 642.099976 C 427.600006 642.799988 428.399994 643.599976 429.299988 644.400024 C 422.5 647.5 416.899994 646.599976 414.200012 642.099976 Z"/>
            <path id="path39" fill="#ffffff" stroke="none" d="M 462.5 640.200012 C 464 641.900024 465.299988 642.900024 465.600006 644.099976 C 465.700012 644.799988 463.700012 646.700012 463.100006 646.5 C 461.799988 646.200012 460.700012 644.799988 459.5 643.900024 C 460.299988 642.900024 461.100006 641.900024 462.5 640.200012 Z"/>
            <path id="path40" fill="#ffffff" stroke="none" d="M 507.200012 650.700012 C 506 651.099976 504.600006 652.099976 503.5 651.900024 C 502.399994 651.700012 501.5 650.299988 500.600006 649.400024 C 501.5 648.700012 502.399994 647.5 503.299988 647.599976 C 504.700012 647.700012 506 648.700012 507.299988 649.299988 C 507.200012 649.799988 507.200012 650.299988 507.200012 650.700012 Z"/>
            <path id="path41" fill="#ffffff" stroke="none" d="M 390.100006 641.900024 C 387.200012 641.700012 385.200012 641.599976 382.200012 641.400024 C 383.600006 639.299988 384.5 637.799988 385.899994 635.700012 C 387.399994 637.900024 388.5 639.599976 390.100006 641.900024 Z"/>
            <path id="path42" fill="#ffffff" stroke="none" d="M 480.299988 643.799988 C 481.200012 644.200012 482.100006 644.599976 483 645 C 484.200012 645.5 485.5 646.099976 486.700012 646.700012 C 485.799988 647.400024 484.700012 648.900024 484.100006 648.700012 C 482.399994 648.200012 480.899994 647 479.5 645.900024 C 479.399994 645.799988 480.100006 644.5 480.5 643.799988 C 480.399994 643.700012 480.299988 643.799988 480.299988 643.799988 Z"/>
            <path id="path43" fill="#ffffff" stroke="none" d="M 410.200012 635.900024 C 410.700012 636 411.299988 635.900024 411.700012 636.099976 C 413.200012 636.900024 414.600006 637.799988 416 638.599976 C 414.600006 639.200012 413.100006 640.400024 411.799988 640.200012 C 409.200012 639.799988 408.799988 637.900024 410.299988 635.799988 C 410.299988 635.799988 410.200012 635.900024 410.200012 635.900024 Z"/>
            <path id="path44" fill="#ffffff" stroke="none" d="M 400.200012 612.200012 C 400.399994 605.5 400.399994 605.5 406.399994 606.099976 C 409.399994 606.400024 412.299988 606.900024 415.299988 606.900024 C 420.600006 606.900024 421.899994 608.099976 421.399994 613.400024 C 421 616.799988 420.600006 620.299988 420.200012 624.200012 C 414.600006 623.799988 409 623.299988 403.399994 622.900024 C 403.399994 622.400024 403.5 621.900024 403.5 621.400024 C 406.399994 621.599976 409.299988 621.799988 412.299988 622.099976 C 408.399994 620 403.5 619.200012 403.899994 612.299988 C 405.299988 614.299988 406.299988 615.799988 407.600006 617.700012 C 408.399994 616.599976 408.899994 615.900024 409 615.799988 C 411.5 616.799988 413.899994 617.799988 417 619 C 415 610.5 405.799988 607.200012 400.200012 612.200012 Z"/>
            <path id="path45" fill="#ffffff" stroke="none" d="M 487.399994 632.799988 C 484.600006 632.5 483.5 632.400024 482.799988 632.299988 C 482.799988 628.700012 482.799988 625.299988 482.799988 621.099976 C 482.799988 621.099976 484.600006 620.700012 484.600006 620.799988 C 485.600006 624.5 486.399994 628.200012 487.399994 632.799988 Z"/>
            <path id="path46" fill="#ffffff" stroke="none" d="M 475.299988 631.700012 C 474.899994 627.299988 474.600006 624.700012 474.399994 622 C 474.299988 621.200012 474.5 620.299988 474.799988 619.5 C 474.899994 619.400024 476.399994 619.5 476.5 619.700012 C 477.100006 622.200012 477.799988 624.700012 477.799988 627.099976 C 477.799988 628.400024 476.399994 629.799988 475.299988 631.700012 Z"/>
            <path id="path47" fill="#ffffff" stroke="none" d="M 470.200012 629.900024 C 467.399994 629.400024 466 629.099976 464.299988 628.799988 C 468.600006 626.299988 468.700012 623.5 463.899994 620 C 466.200012 619.799988 468.700012 619.400024 468.700012 619.599976 C 469.299988 622.700012 469.700012 625.900024 470.200012 629.900024 Z"/>
            <path id="path48" fill="#ffffff" stroke="none" d="M 449.899994 616.200012 C 451.299988 617 453.399994 617.599976 453.600006 618.5 C 454.200012 621.400024 455.200012 624.799988 451.799988 627.400024 C 451.200012 623.900024 450.700012 620.799988 449.899994 616.200012 Z"/>
            <path id="path49" fill="#ffffff" stroke="none" d="M 444.399994 628.299988 C 443.600006 623.5 443.100006 620.400024 442.399994 616.5 C 442.200012 616.599976 444.200012 615.5 444.600006 615.900024 C 445.600006 617 446.299988 618.700012 446.299988 620.099976 C 446.100006 622.5 445.200012 624.799988 444.399994 628.299988 Z"/>
            <path id="path50" fill="#ffffff" stroke="none" d="M 436.899994 625.900024 C 436.299988 622.400024 435.799988 619.200012 435.200012 615.299988 C 436.200012 615.799988 438 616 438.399994 616.799988 C 439.600006 619.900024 440 623.200012 436.899994 625.900024 Z"/>
            <path id="path51" fill="#ffffff" stroke="none" d="M 427.399994 614 C 431.600006 615.799988 432.200012 619 429.100006 625.200012 C 428.5 621.099976 428 617.799988 427.399994 614 Z"/>
            <path id="path52" fill="#ffffff" stroke="none" d="M 460.700012 628.200012 C 459.799988 624.900024 459 622.099976 458.399994 619.299988 C 458.299988 618.799988 459 617.700012 459.100006 617.700012 C 460 617.900024 461.299988 618.099976 461.5 618.700012 C 462.799988 621.799988 462.799988 625 460.700012 628.200012 Z"/>
            <path id="path53" fill="#ffffff" stroke="none" d="M 391.299988 567.799988 C 393 567.799988 393.700012 567.700012 394.299988 567.799988 C 395.899994 568.099976 397.5 568.599976 399.100006 569.099976 C 399.100006 569.099976 398.799988 570.700012 398.700012 570.700012 C 396.799988 570.599976 394.899994 570.5 393 570.099976 C 392.5 570 392.100006 569 391.299988 567.799988 Z"/>
        </g>
    </g>
</svg>
