<?xml version="1.0" encoding="UTF-8"?>
<!-- Generated by Pixelmator Pro 3.6.2 -->
<svg width="773" height="951" viewBox="0 0 773 951" xmlns="http://www.w3.org/2000/svg">
    <g id="Layer1xA0Image00000124840873075750471130000017396983544215093122">
        <g id="Group">
            <path id="Path" fill="#314a59" stroke="none" d="M 392.872864 601.010742 C 395.21344 601.38031 397.677246 602.119385 400.017853 602.119385 C 401.865692 602.119385 404.822235 601.749878 405.315002 600.641235 C 406.177338 598.670166 405.561371 596.08313 404.083099 593.496094 C 403.220795 595.343994 402.358429 597.068665 401.496124 598.916504 C 401.126556 598.916504 400.756989 598.793335 400.264252 598.793335 C 399.894653 596.32959 399.525085 593.865723 398.909149 590.416382 C 410.365784 591.648315 421.329651 592.633911 432.17038 593.865723 C 445.228516 595.343994 458.163422 597.315063 471.221527 598.546997 C 473.931702 598.793335 476.888245 596.32959 479.59845 596.452759 C 489.330414 597.191833 498.939209 598.670166 508.548035 601.133911 C 505.714661 601.133911 502.758087 601.133911 499.924744 601.133911 C 499.924744 601.626709 499.924744 601.996216 499.801544 602.489014 C 537.128052 606.923828 574.454529 611.358643 612.520203 615.916687 C 612.027405 618.503723 611.411438 621.213867 610.672363 625.279175 C 609.809998 623.061646 609.44043 622.076172 609.070862 621.090698 C 608.824463 621.090698 608.578125 621.213867 608.331726 621.213867 C 608.331726 623.924011 608.331726 626.634216 608.331726 629.59082 C 604.882385 630.083496 601.556274 630.453064 598.353333 630.945862 C 598.353333 631.192261 598.353333 631.438599 598.353333 631.684937 C 600.69397 632.054565 602.911377 632.424133 605.128784 632.793701 C 603.280945 638.460388 601.556274 643.757629 599.708435 649.547485 C 594.904053 647.083679 600.940308 643.018433 598.84613 639.569092 C 564.352966 635.750244 529.367065 631.931396 492.779724 627.866089 C 494.504395 630.576294 495.489899 632.424133 495.613098 632.424133 C 500.417511 630.453064 500.787048 635.257507 502.38855 637.228516 C 511.874146 649.301147 522.345276 661.00415 523.700378 677.511597 C 523.823547 678.866699 526.040955 680.960876 527.396057 681.207275 C 536.265747 682.685547 545.258545 684.533386 554.128235 684.533386 C 558.809448 684.533386 563.490662 681.084106 568.171875 679.236267 C 568.418274 679.729004 569.157349 681.576782 569.896545 683.547852 C 569.280579 684.779785 567.802307 686.627686 567.679138 688.475464 C 567.063171 695.620483 566.693604 702.765503 566.816772 709.910461 C 566.816772 711.388733 569.403748 713.72937 571.128418 714.222107 C 575.070496 715.207703 579.135742 715.207703 584.925659 715.823608 C 582.831421 716.932312 582.215515 717.30188 581.106812 717.794617 C 585.911255 718.533752 590.346008 719.149658 594.780823 719.888855 C 594.904053 719.642456 595.027222 719.272949 595.150452 719.02655 C 594.534485 718.533752 593.918579 718.041016 593.302612 717.548218 C 593.425781 717.055542 593.54895 716.562744 593.67218 716.069946 C 596.259094 716.809143 598.84613 717.671509 601.433105 718.041016 C 605.128784 718.656982 608.824463 719.149658 612.643372 719.519287 C 617.324585 720.012024 622.005798 720.504822 626.687012 721.736694 C 624.469604 721.983154 622.128967 722.229431 619.91156 722.352661 C 619.91156 722.106262 619.91156 721.859863 620.034729 721.736694 C 638.882813 723.215027 657.607605 724.816467 676.455688 726.294739 C 676.578857 727.157043 676.702026 728.019348 676.825256 728.881714 C 674.484619 729.74408 671.897644 731.591919 669.680237 731.34552 C 663.397522 730.483154 656.868469 733.07019 650.832153 729.251282 C 649.84668 728.635315 647.752441 729.497681 646.151001 729.74408 C 645.411865 729.867188 644.179993 730.729553 644.056702 730.606384 C 639.745117 724.939636 633.216064 727.772949 627.795715 726.664307 C 621.882568 725.432434 615.723083 724.939636 609.686829 724.693237 C 608.208557 724.570068 606.360718 726.04834 605.251953 727.280273 C 602.049072 731.099121 599.954834 732.084595 596.382324 727.157043 C 593.67218 723.461304 589.730103 719.642456 583.940125 721.983154 C 582.585083 722.106262 580.614014 722.968628 579.998108 722.352661 C 574.084961 716.562744 566.447205 721.736694 560.164551 718.410583 C 560.534119 719.272949 561.273254 719.396118 561.642822 719.765625 C 562.874695 720.997559 563.860229 722.47583 565.092102 723.830933 C 563.367493 724.077271 561.519653 724.693237 559.918152 724.446899 C 558.686218 724.2005 557.208008 723.091797 556.838379 721.983154 C 554.374573 715.577271 549.816589 716.439575 544.765808 718.041016 L 544.889038 717.917786 C 544.519409 717.794617 544.026672 717.794617 543.657104 717.548218 C 536.388916 713.482971 528.258423 715.084473 520.620605 713.72937 C 519.388733 713.482971 518.03363 713.482971 516.678589 713.359863 C 512.982849 712.990234 509.163971 712.620667 505.468292 712.251099 C 504.359589 712.12793 502.634888 712.620667 502.142151 712.0047 C 498.939209 708.185852 495.736298 709.664124 492.656555 710.28009 C 485.511536 709.294495 478.489746 708.185852 471.344696 707.200317 C 472.083862 709.048218 473.192566 710.033691 474.30127 710.649658 C 475.163605 711.142334 476.149109 711.019165 477.134644 711.265625 C 476.272308 712.251099 475.040405 714.222107 474.794037 714.098938 C 472.4534 713.113403 469.866455 712.12793 468.388153 710.28009 C 465.43161 706.584412 462.844635 703.627808 458.40979 708.309021 L 458.53299 708.185852 C 457.424286 707.939453 456.069183 707.939453 455.083679 707.323486 C 449.6633 703.874207 448.924194 704.120605 448.431396 710.28009 C 448.308258 711.019165 447.93866 711.635132 447.692291 712.497498 C 434.141418 699.80896 434.141418 699.80896 424.902191 709.540894 C 423.547089 709.048218 422.315186 708.678589 421.206512 708.432251 C 420.220947 708.185852 418.742706 708.55542 418.12677 708.062622 C 417.510803 707.323486 417.141205 705.598816 417.510803 704.982849 C 418.12677 703.997375 419.605011 703.011841 420.836914 703.011841 C 422.438385 702.888672 424.163055 703.504639 425.887695 703.750977 C 426.010895 703.25824 426.010895 702.642334 426.134094 702.149536 C 416.648468 701.164001 407.286041 700.178528 398.293182 699.192993 C 399.648285 701.4104 400.633789 703.13501 401.742493 704.982849 C 398.909149 705.845215 396.075745 706.70752 392.996002 707.693054 C 393.611969 708.678589 394.597504 710.28009 395.583008 711.758301 C 395.583008 711.758301 395.583008 711.758301 395.583008 711.758301 C 392.010498 711.265625 388.684387 711.265625 386.343781 707.323486 C 385.235077 705.475647 381.662567 704.982849 379.075592 703.874207 C 378.336426 701.4104 378.090088 697.345154 376.858185 696.975525 C 374.271179 696.23645 371.191437 697.591492 368.234894 698.08429 C 368.234894 698.08429 368.727661 697.714722 368.727661 697.714722 C 364.416016 700.424927 360.473938 704.120605 354.191254 701.164001 C 354.314423 702.026367 354.560822 702.888672 354.684021 703.874207 C 358.133331 703.874207 361.705811 703.874207 365.771118 703.874207 C 368.604462 707.323486 372.176941 708.924927 376.488586 704.243774 C 376.981354 703.627808 378.336426 703.874207 379.321991 703.627808 C 381.046631 705.722046 382.89447 707.816284 384.865509 710.28009 C 375.010345 709.171387 365.27832 708.062622 355.546326 706.953979 C 355.423126 707.569885 355.423126 708.185852 355.299988 708.678589 C 363.923248 709.787292 372.546539 710.896057 381.16983 711.881531 C 392.626465 713.236572 404.206299 714.468506 415.662964 715.823608 C 421.329651 716.562744 426.873199 717.671509 432.416748 718.410583 C 446.337189 720.504822 460.380829 722.352661 474.30127 724.570068 C 475.533142 724.816467 476.518707 726.294739 477.75058 727.157043 C 476.641907 728.019348 475.656342 729.497681 474.424469 729.62085 C 468.511353 730.852722 462.844635 731.099121 457.793823 726.171509 C 455.822784 724.2005 452.250305 723.830933 449.416962 722.845398 C 445.351654 721.367188 443.380646 722.968628 443.627014 727.403442 C 446.953156 727.89624 450.402435 728.388916 453.851776 728.881714 C 453.482208 730.359985 453.11264 731.468689 452.619904 733.316528 C 460.011261 732.700562 466.909882 731.961426 473.808502 731.715088 C 475.410004 731.591919 477.011444 732.577393 478.612885 733.316528 C 480.707153 734.302124 482.801392 736.642639 484.7724 736.519531 C 490.808716 736.149902 496.721802 734.91803 502.634888 733.932495 C 503.374054 735.657166 504.11319 737.505005 505.221893 739.968811 C 508.301636 739.599243 511.750977 739.106445 515.692993 738.61377 C 512.73645 735.903564 511.011841 733.686157 508.794403 732.577393 C 506.823395 731.591919 503.250854 727.64978 502.758087 734.055664 C 501.033447 733.932495 499.308807 733.809326 497.214569 733.562927 C 501.772583 730.359985 498.323273 728.635315 496.598602 726.664307 L 496.721802 726.787476 C 504.236389 727.526672 511.750977 728.142578 519.142334 728.881714 C 520.743835 736.273071 521.975708 736.765869 528.504761 733.562927 C 531.214966 742.063049 536.019348 745.881897 544.642639 740.461548 C 540.454163 738.244141 535.772949 735.657166 530.3526 732.823792 C 540.454163 726.787476 545.504944 737.258606 553.635498 737.997803 C 553.635498 739.968811 553.635498 742.309448 553.635498 746.128296 C 561.519653 744.650024 570.019714 743.048523 578.889404 741.447083 C 578.273438 742.925354 577.411072 745.38916 576.548767 747.606567 C 581.35321 747.606567 587.019897 747.606567 592.563416 747.606567 C 590.838806 745.26593 588.744568 744.650024 587.389465 743.418091 C 584.309692 740.461548 578.027039 739.968811 579.505371 733.316528 C 581.722717 734.302124 583.816956 735.780273 586.157532 736.273071 C 590.838806 737.135437 594.780823 738.244141 596.875061 743.541321 C 597.737427 745.758728 601.556274 746.867371 604.635986 748.838501 C 604.759216 748.468933 604.266479 749.577576 603.157776 752.164612 C 608.085388 751.794983 612.273804 751.548645 616.46228 751.302246 C 616.585449 750.809448 616.831848 750.316772 616.954956 749.823975 C 613.505676 747.483337 610.056396 745.142761 606.237549 742.555725 C 613.752075 737.751404 619.049255 740.21521 621.389832 748.71521 C 623.976807 749.084839 626.687012 749.454407 629.643616 749.823975 C 629.889893 755.244385 626.071045 756.353027 622.868164 756.106628 C 612.027405 755.367493 601.186707 754.258789 590.469177 752.53418 C 588.005371 752.164612 586.280762 753.889221 582.954651 752.41095 C 577.657471 750.070374 570.512451 752.657349 564.106628 752.41095 C 558.43988 752.164612 552.896362 750.686279 547.229614 750.070374 C 539.09906 749.208008 530.968567 748.592041 522.838074 747.729736 C 505.345093 746.005127 487.975342 744.526855 470.482391 742.432617 C 464.199707 741.693481 458.040222 739.352844 451.757538 738.61377 C 440.793671 737.381836 429.583374 737.135437 418.619507 735.780273 C 408.764313 734.548401 399.032349 731.961426 389.177155 730.606384 C 383.633636 729.867188 377.966888 730.483154 372.30014 730.113647 C 361.336273 729.251282 350.495544 727.89624 339.531677 726.910706 C 331.647522 726.171509 323.640198 725.678833 315.756042 725.062866 C 315.632874 725.678833 315.632874 726.294739 315.509674 727.033875 C 340.640381 730.236755 365.894257 733.439758 389.91626 736.39624 C 388.807556 739.722412 387.822052 742.555725 386.713379 745.881897 C 390.778625 746.251465 393.611969 746.497803 397.184509 746.744263 C 396.93811 750.686279 396.691711 754.628418 396.322144 760.295105 C 393.242401 757.70813 391.271362 756.106628 389.177155 754.505188 C 388.807556 755.983459 388.314819 757.954468 387.698883 760.048706 C 395.336639 762.142944 402.604828 763.867615 409.749817 766.085022 C 413.815125 767.316956 418.003571 768.795227 421.699249 770.889404 C 432.04718 776.679321 439.931335 783.578003 437.960266 797.744812 C 436.235626 811.295715 437.467529 825.216125 436.851563 838.890137 C 436.235626 851.701904 434.880524 864.513611 434.264587 877.202209 C 433.89502 883.977661 434.510986 890.753113 434.141418 897.405273 C 434.018219 899.99231 432.416748 902.456116 431.923981 903.934326 C 424.902191 900.115479 418.865875 896.4198 412.460022 893.586426 C 402.481628 889.27478 399.771454 889.890747 397.184509 901.59375 C 395.459808 898.637207 393.981567 896.4198 392.872864 894.079163 C 389.177155 886.441467 381.785767 882.745728 373.162506 884.716736 C 372.053741 884.963135 370.329102 885.948669 369.836365 885.579102 C 362.691376 879.666016 364.292816 886.564575 363.55368 889.767517 C 362.568176 894.079163 361.705811 898.390808 360.350739 904.057556 C 359.118835 901.963318 358.010132 901.100952 358.256531 900.485046 C 360.10437 892.724121 353.575287 888.781982 350.126007 883.854431 C 348.770905 881.883423 344.705658 881.760193 341.995453 880.774658 C 341.379517 882.868896 340.640381 884.839905 340.270813 886.934143 C 339.901245 888.412476 340.024414 890.013916 340.517212 891.492188 C 340.517212 875.107971 340.024414 858.723755 340.640381 842.462708 C 341.502716 820.534912 343.596954 798.607056 344.582458 776.679321 C 344.828857 770.519836 347.539001 766.700989 352.712982 765.345825 C 362.691376 762.512512 372.916107 760.664673 383.510437 758.200867 C 384.988678 750.193542 383.756775 748.838501 374.14801 750.193542 C 367.495758 751.179016 360.966675 752.780579 354.068085 753.642822 C 358.010132 751.794983 361.952209 750.070374 366.140656 748.099304 C 359.365234 741.693481 347.9086 750.193542 343.596954 740.584717 C 352.097046 741.447083 360.597137 742.432617 369.097198 743.294922 C 372.546539 743.66449 376.119049 743.910889 379.568329 743.418091 C 381.292999 743.171692 382.771271 741.447083 384.372742 740.461548 C 384.126373 739.845642 383.879974 739.229675 383.633636 738.61377 C 369.097198 737.381836 354.560822 736.026733 339.285309 734.671631 C 336.328735 794.665039 333.248993 855.028076 330.292419 915.391052 C 329.430115 915.391052 328.44458 915.267822 327.582275 915.267822 C 329.676483 868.948486 331.647522 822.50592 333.74176 775.077881 C 329.306946 777.911255 325.488037 780.375 322.901062 782.099731 C 322.408295 787.150452 321.915558 791.585327 321.545959 796.143311 C 320.560455 796.143311 319.574951 796.266541 318.589417 796.266541 C 317.727112 792.324463 316.987946 788.259216 316.12561 784.440247 C 311.321228 787.889648 308.611023 792.817261 308.364685 799.962219 C 306.640015 843.817749 304.422577 887.67334 302.082001 931.52887 C 301.958801 935.101379 300.35733 938.55072 299.371796 942 C 298.509491 942 297.770355 942 296.90799 942 C 289.639801 937.441956 282.86438 930.666504 274.980225 928.941895 C 268.328003 927.586792 263.400421 923.398376 260.320679 920.072266 C 256.378571 915.883728 250.219086 912.927246 248.371246 907.999634 C 245.90744 901.224243 242.334946 897.035767 236.421844 893.586426 C 232.84935 891.369019 230.385544 887.303711 227.182602 883.854431 C 227.552185 883.361694 228.537704 882.129822 229.646408 880.651489 C 220.283997 881.267456 223.24054 871.165894 217.081055 868.702087 C 216.834671 868.825256 215.849152 869.564453 215.602783 869.810852 C 211.907089 861.433838 208.704147 853.057007 204.63887 845.049622 C 203.406982 842.462708 200.450439 840.737976 198.233017 838.643738 C 196.261993 836.795898 194.290939 834.948059 192.319901 833.22345 C 187.269135 828.665405 182.341537 823.860962 177.044373 819.426208 C 170.268936 813.882629 162.877563 809.201416 156.594864 803.28833 C 151.790482 798.730347 146.370132 797.005615 140.333832 795.404175 C 130.601837 792.940369 120.869843 790.723022 111.630608 787.150452 C 104.239235 784.317139 98.572502 776.556152 99.558014 769.90387 C 100.543541 763.374878 97.586983 760.295105 95 755.613892 C 101.282677 753.026855 107.318977 750.439941 113.601654 748.222534 C 117.297348 746.867371 119.637939 745.512329 118.652443 740.831116 C 117.543724 735.657166 117.174149 730.359985 116.927773 725.062866 C 116.804596 723.215027 117.7901 720.012024 119.021996 719.519287 C 125.058304 717.30188 131.340973 715.207703 137.623657 713.975769 C 146.000565 712.374268 154.62384 711.511963 163.123932 710.526428 C 170.761688 709.787292 173.841431 703.25824 178.645844 698.946594 C 184.682144 693.649475 191.457581 689.584106 200.204056 694.019043 C 202.175079 695.004517 205.378021 694.758179 207.841812 694.142212 C 215.479584 691.924805 223.11734 689.33783 230.508728 686.381226 C 232.479767 685.642151 234.820374 683.055115 235.189941 680.960876 C 236.421844 672.214417 237.653732 663.468018 237.530563 654.721436 C 237.407364 649.424316 234.081238 644.496704 228.168137 643.264832 C 228.168137 638.706787 228.168137 634.271973 228.168137 629.34436 C 227.921753 629.467529 228.291321 629.098022 228.537704 628.974854 C 237.037796 627.496582 239.624786 622.199402 238.392883 614.068848 C 237.776932 610.126709 239.871155 608.032593 243.566849 606.184753 C 249.233582 603.474548 254.77713 600.148438 259.458313 596.08313 C 261.182983 594.604858 260.690216 590.293213 259.827881 586.967102 C 261.182983 585.48877 262.661255 583.887329 264.262726 582.16272 C 260.936615 582.532288 258.349609 582.655457 255.762634 583.148254 C 254.407547 583.394653 252.682892 583.640991 251.820557 584.626526 C 250.465485 586.228027 249.603134 588.322266 248.61763 590.293213 C 248.494446 590.416382 249.726334 591.155579 250.342285 591.648315 C 251.450989 590.046875 252.436508 588.445374 253.545227 586.967102 C 254.037979 586.351135 254.653931 585.858398 255.393082 585.365601 C 258.22641 590.293213 256.255402 594.851257 251.204605 595.590332 C 247.632111 596.08313 245.537888 593.249817 246.892975 588.938171 C 248.248062 584.749695 250.095917 580.807617 251.574188 577.111938 C 255.885818 576.865479 260.320679 576.495972 265.864197 576.126404 C 264.016357 572.923462 263.030823 571.322021 262.168518 569.84375 C 264.509094 568.734985 266.726532 567.626282 268.943939 566.517639 C 268.328003 565.655273 267.835236 564.6698 267.219269 563.807434 C 268.69754 562.69873 270.175842 561.590027 272.762848 559.618958 C 269.436707 559.988586 267.465668 560.234863 265.125061 560.481323 C 265.617798 558.510254 266.110565 556.908813 266.480164 555.430542 C 266.849701 554.075439 267.0961 552.720337 267.465668 550.749268 C 269.436707 552.10437 270.791809 553.089905 272.516449 554.198608 C 273.871552 552.966736 275.349792 551.611694 276.458527 550.626099 C 276.088928 558.140747 275.596191 565.778442 275.226624 574.155396 C 279.045471 577.358276 288.284729 575.510498 288.284729 584.996094 C 303.313873 579.575684 317.97345 574.278564 332.633026 568.981445 C 332.509857 568.488647 332.509857 567.995911 332.386688 567.503113 C 327.212677 567.995911 322.161896 568.365479 317.480713 568.734985 C 319.69812 564.916138 321.915558 561.220459 324.132935 557.52478 C 328.321381 555.553711 335.096832 556.662476 333.864929 548.039185 C 333.002625 549.271057 332.509857 550.010132 332.01709 550.749268 C 331.524323 550.626099 330.908386 550.50293 330.415619 550.379761 C 331.770721 536.089722 333.248993 521.676514 334.604065 508.24884 C 334.973663 508.002502 334.111328 508.495239 332.756226 509.357544 C 333.002625 506.401001 333.125824 504.183594 333.248993 501.966156 C 332.263489 504.676361 323.640198 505.169098 328.937347 508.37204 C 327.335876 525.618652 325.734436 541.633301 324.256134 557.647949 C 323.886597 555.060913 323.27063 552.473999 323.393799 550.010132 C 324.379333 531.778076 325.857605 513.669189 326.596741 495.437103 C 327.212677 480.407959 326.966339 465.378784 326.966339 450.349701 C 326.966339 446.161224 326.104004 441.972717 325.980804 437.784302 C 325.980804 436.429199 326.84314 434.827759 327.582275 433.595825 C 330.662018 428.421875 329.060547 425.218933 323.14743 424.603027 C 322.531494 424.479858 321.915558 424.356628 321.299591 424.233459 C 318.589417 423.987061 315.879242 424.110229 313.292267 423.617493 C 311.074829 423.124695 308.364685 422.26239 307.009583 420.660889 C 305.531281 418.813049 305.408112 415.856567 304.422577 412.653564 C 308.980621 410.559326 314.031403 408.09552 319.205353 405.878174 C 324.748901 403.537598 329.306946 400.457825 331.277985 394.29834 C 331.893921 392.327271 333.495361 390.356262 335.343231 389.247559 C 342.857819 384.443176 343.227356 383.211304 339.408478 378.160461 C 340.517212 372.370544 342.857819 367.689331 341.749115 363.993652 C 338.299774 351.921021 341.502716 340.710815 345.444794 329.746887 C 354.191254 305.848022 371.807404 290.326172 394.227905 279.485474 C 402.851196 275.296997 411.351318 271.23175 420.467346 266.920105 C 419.112244 265.441833 418.12677 264.2099 417.141205 263.224426 C 417.264404 262.608459 417.264404 261.992493 417.510803 261.869385 C 425.518127 256.079407 426.626831 246.71698 427.365997 238.340088 C 428.967438 219.122498 429.090637 199.904846 429.706573 180.564148 C 430.32254 162.085632 431.061676 143.730347 431.677643 125.251892 C 431.677643 124.635925 432.04718 124.143127 433.279083 123.527222 C 433.279083 127.2229 433.402283 130.918579 433.279083 134.614258 C 431.800781 168.614685 430.199341 202.491882 428.967438 236.492249 C 428.844238 239.69519 430.076141 242.898132 431.800781 245.977844 C 430.815277 248.072083 429.706573 250.166321 428.474701 252.753296 C 430.568878 253.369263 432.17038 253.73877 435.003723 254.601135 C 432.909515 256.448975 431.308044 257.927246 429.829773 259.282349 C 431.923981 262.115662 433.89502 265.072266 436.235626 267.782471 C 437.221161 268.891113 439.069 269.383911 440.547272 269.63031 C 460.750397 272.710022 478.366547 281.702881 494.011627 294.391418 C 504.11319 302.645142 510.888641 312.869873 511.627777 326.790283 C 512.120544 337.015137 513.229248 347.116638 510.272675 357.218201 C 509.533539 359.682007 511.381378 362.761719 512.366943 367.073364 C 512.120544 368.798035 511.13501 372.370544 511.381378 375.819885 C 511.504578 377.914063 513.229248 380.870667 515.077087 381.732971 C 521.482971 384.566345 521.482971 389.247559 520.251038 396.392517 C 475.163605 389.617065 430.44574 382.964905 385.727814 376.189453 C 385.358276 376.682129 385.111877 377.174927 384.74231 377.544495 C 385.851013 378.776428 386.713379 380.501099 388.06842 381.240173 C 389.669922 382.102539 391.640961 382.348938 393.4888 382.348938 C 422.068817 383.088013 449.6633 390.72583 477.75058 394.667908 C 478.120148 394.667908 478.366547 395.037476 478.612885 396.269348 C 447.93866 391.957703 417.264404 387.522888 386.590179 383.211304 C 386.343781 383.827209 386.220581 384.319946 385.974213 384.935913 C 387.452484 385.675049 388.930756 387.030151 390.532227 387.153259 C 410.488983 389.740295 430.32254 392.080872 450.279266 394.791077 C 470.60556 397.62439 490.808716 400.827393 511.011841 403.783936 C 519.265503 405.015808 527.642456 406.001404 536.019348 407.110046 C 537.62085 407.356445 539.09906 407.726013 539.468689 407.849243 C 534.417908 410.928955 529.120728 414.378296 523.577148 417.581177 C 522.098877 418.443542 520.004639 419.675415 518.526428 419.305847 C 491.671021 414.131897 464.692474 410.06665 437.713928 406.001404 C 426.134094 404.276672 414.55423 403.0448 402.851196 401.689758 C 401.003357 401.443359 399.155518 401.443359 397.430847 401.936035 C 394.843872 402.552002 391.394562 403.414368 392.380066 406.986877 C 392.872864 408.588318 395.583008 410.06665 397.554047 410.436157 C 405.561371 411.91449 413.691925 412.899963 421.699249 414.255005 C 423.916656 414.624634 426.134094 415.733337 428.351501 416.472534 C 428.228302 416.96521 428.105103 417.581177 427.981934 418.073975 C 422.068817 417.08844 416.155701 416.102905 410.242584 415.117371 C 404.452698 414.255005 398.66275 411.79126 392.996002 414.255005 C 392.872864 414.870972 392.872864 415.610168 392.749664 416.226135 C 395.336639 416.96521 397.923615 417.827576 400.633789 418.320374 C 407.409241 419.305847 414.184662 420.044983 420.960114 420.907288 C 438.576233 423.247925 456.192383 425.711731 473.808502 428.175537 C 477.257843 428.668274 480.707153 428.791504 484.156433 429.161011 L 484.033264 429.037781 C 486.127472 430.392944 488.22171 432.733521 490.439117 433.103149 C 500.047943 434.211792 509.779938 434.58136 520.867004 435.443665 C 512.366943 441.110474 503.127686 433.595825 496.352264 441.356781 C 503.127686 441.356781 510.026276 441.356781 516.801697 441.356781 C 516.801697 442.095978 516.801697 442.711914 516.801697 443.451019 C 512.73645 443.451019 508.794403 443.820587 504.852325 443.32785 C 499.801544 442.835083 497.830505 444.682922 497.707306 449.733734 C 497.214569 462.668671 496.352264 475.480347 495.736298 488.415283 C 494.873962 506.6474 494.134827 524.879456 493.39566 543.111572 C 493.272522 544.713013 493.642059 546.314453 493.765259 547.915955 C 501.526215 548.778259 508.794403 549.517456 516.185791 550.379761 C 516.062622 551.118896 516.062622 551.858032 515.939392 552.597168 C 505.83783 551.365234 495.859467 550.256592 485.757935 549.024658 C 485.757935 549.271057 485.634735 549.640625 485.634735 549.886963 C 486.250671 550.010132 486.866638 550.256592 489.207214 550.872498 C 486.004272 552.473999 483.910095 554.691406 482.062225 554.445007 C 451.634338 550.872498 421.206512 547.053589 390.778625 542.372437 C 400.633789 543.234741 410.612183 544.220276 420.467346 545.082581 C 420.590546 544.466614 420.713715 543.727539 420.960114 543.111572 C 412.336823 538.060791 401.619293 540.894165 392.503265 536.089722 C 394.720703 535.966553 396.814911 535.473755 399.032349 535.596985 C 404.575867 536.089722 409.996216 536.705688 415.539764 537.444824 C 419.481812 537.937622 421.083313 536.336121 421.206512 532.394043 C 421.329651 515.024292 421.699249 497.531372 422.068817 480.161591 C 422.438385 464.51651 422.807953 448.748169 423.30069 433.103149 C 423.30069 432.85675 423.30069 432.733521 423.30069 432.487183 C 423.547089 429.653748 424.902191 424.972534 423.793457 424.356628 C 420.713715 422.38562 416.648468 421.646423 412.829559 421.276855 C 409.38028 420.907288 405.930939 422.139221 402.481628 422.016052 C 399.648285 421.892822 396.93811 420.907288 394.227905 420.168213 C 392.256897 419.675415 390.285858 418.197144 388.438019 418.56665 C 384.126373 419.305847 379.937927 420.907288 375.749451 422.139221 C 375.87265 422.755188 376.119049 423.494263 376.242249 424.110229 C 379.445129 423.124695 382.648071 422.016052 385.851013 421.030457 C 385.974213 421.400085 386.220581 421.769653 386.343781 422.139221 C 384.619141 423.371094 383.01767 424.479858 381.292999 425.711731 C 381.539368 425.958069 381.908936 426.450867 382.032135 426.450867 C 391.76413 423.001526 392.626465 423.494263 392.380066 433.842224 C 391.640961 464.023743 390.655426 494.082031 390.039459 524.26355 C 389.91626 530.176636 391.024994 536.212891 384.988678 541.017334 C 381.662567 539.292725 377.843689 537.321655 374.887146 535.720215 C 373.778442 538.553528 372.792908 541.263733 371.437805 544.959412 C 371.807404 545.205811 373.162506 546.684082 374.14801 546.437683 C 381.16983 544.713013 381.16983 544.589844 385.727814 549.886963 C 385.851013 548.285522 385.851013 547.176819 385.851013 545.944946 C 386.097412 546.068115 386.713379 546.068115 386.713379 546.191284 C 387.082916 550.872498 390.655426 550.749268 393.858368 551.118896 C 414.061462 553.213135 434.264587 555.060913 454.467743 557.40155 C 475.410004 559.742188 496.352264 562.575562 517.294495 565.162476 C 520.374268 565.532104 523.330811 565.778442 526.410522 566.024841 C 526.533752 566.517639 526.656921 567.133545 526.78009 567.626282 C 524.069946 568.11908 521.236572 569.350952 518.526428 569.104614 C 498.81604 567.380005 478.982483 565.532104 459.272125 563.561035 C 443.996613 562.082764 428.721039 560.234863 413.445526 559.002991 C 403.713531 558.140747 393.858368 558.017456 385.111877 557.647949 C 385.727814 559.002991 386.713379 561.466797 388.06842 564.546509 C 388.684387 564.6698 390.039459 565.039307 391.394562 564.916138 C 397.307648 564.177002 400.141052 567.872681 400.38739 572.553833 C 400.633789 576.865479 402.851196 576.98877 405.80777 577.358276 C 410.858521 577.974243 415.909332 578.467041 420.960114 579.206177 C 422.068817 579.329346 423.054352 580.561218 423.30069 582.532288 C 414.061462 581.423584 404.945435 580.438049 395.336639 579.329346 C 394.597504 575.756836 400.51059 570.829224 394.351105 568.242249 C 390.778625 566.764038 386.46698 567.010376 383.264038 566.517639 C 383.510437 564.792969 383.756775 562.945068 384.003174 560.974121 C 380.553864 561.09729 374.763947 560.111755 373.901611 561.590027 C 371.684204 565.901672 368.727661 564.792969 365.647919 564.42334 C 361.213074 564.053833 358.502869 565.408875 358.502869 570.336487 C 358.502869 573.046631 358.37973 575.633667 358.010132 578.343811 C 357.394196 582.655457 360.22757 583.640991 363.307312 584.256897 C 372.053741 586.228027 372.053741 586.228027 370.821869 595.220825 C 370.6987 595.959961 370.945068 596.699097 370.945068 597.438232 C 371.561005 597.561462 372.30014 597.561462 372.916107 597.684631 C 373.285645 593.988892 373.532043 590.293213 373.901611 585.981567 C 378.829193 586.597534 384.249573 587.459839 389.669922 587.952637 C 393.119202 588.198975 393.735168 589.800415 393.242401 592.880188 C 392.626465 596.206299 392.872864 598.670166 392.872864 601.010742 C 391.271362 597.807739 389.669922 594.481689 387.822052 590.662781 C 387.082916 593.496094 386.46698 595.713623 385.604614 599.409302 C 384.372742 595.220825 383.633636 592.757019 383.01767 590.293213 C 382.648071 590.416382 382.401733 590.539673 382.032135 590.539673 C 381.539368 593.003418 381.046631 595.343994 380.553864 597.807739 C 380.184296 597.807739 379.814728 597.807739 379.445129 597.684631 C 379.075592 595.097656 378.706024 592.51062 378.336426 589.923706 C 377.966888 589.923706 377.474121 589.923706 377.104553 589.923706 C 376.488586 592.880188 375.99585 595.836792 375.379883 599.162903 C 381.539368 599.901978 387.206116 600.517944 392.872864 601.010742 Z M 382.155334 645.23584 L 382.155334 645.23584 C 380.184296 646.590942 377.843689 649.301147 376.365387 648.931519 C 370.821869 647.206909 370.821869 651.272156 369.713165 654.351929 C 369.097198 656.076599 368.727661 657.801208 368.111694 659.895447 C 370.329102 660.141846 372.053741 660.388245 374.394379 660.634521 C 373.408844 659.033081 372.792908 657.924438 371.930603 656.446167 C 376.734985 655.8302 380.923431 654.351929 384.988678 654.844727 C 388.19162 655.214233 392.010498 657.185303 394.104767 659.649048 C 398.046814 664.207092 400.51059 665.192627 404.699036 662.605652 C 402.23526 660.634521 399.525085 658.417114 396.814911 656.199768 C 398.046814 657.062134 399.155518 657.924438 400.38739 658.663574 C 400.756989 658.294006 401.003357 657.801208 401.372955 657.431641 C 399.648285 654.967896 397.923615 652.380859 396.814911 650.65625 C 401.619293 652.750488 406.670074 654.844727 412.090424 657.308472 C 409.25708 657.55481 407.162842 657.801208 404.945435 657.924438 C 404.945435 658.294006 404.945435 658.663574 404.945435 659.156372 C 406.670074 659.649048 408.394745 660.265015 409.996216 660.757813 C 409.749817 662.359253 409.503479 663.714294 409.25708 665.685425 C 410.98172 665.192627 411.967255 665.069458 412.829559 664.69989 C 413.815125 664.207092 414.800629 663.591125 415.786133 662.97522 C 417.757172 667.410034 419.358643 667.779663 427.612335 666.4245 C 429.090637 663.837524 430.568878 661.743286 431.677643 659.525879 C 433.032684 656.815674 435.866089 653.243164 435.126923 651.395325 C 432.04718 644.127197 437.467529 644.619873 441.655975 643.757629 C 441.040009 643.388 440.300903 643.018433 439.684967 642.525757 C 441.532806 639.322754 443.380646 635.996582 445.105316 632.793701 C 445.598053 633.0401 446.21402 633.286499 446.706757 633.532837 C 446.829956 634.887939 446.953156 636.119873 446.953156 637.598145 C 449.416962 636.858948 451.388 636.119873 453.974945 635.257507 C 452.743042 633.656006 451.634338 632.177734 449.6633 629.59082 C 452.743042 630.453064 454.344543 630.945862 456.315582 631.438599 C 454.467743 622.938477 463.70697 629.467529 465.062012 624.17041 C 459.518494 624.17041 454.098145 624.17041 446.829956 624.17041 C 439.192169 618.99646 422.192017 616.902222 417.141205 622.44574 C 416.402069 620.967529 415.662964 619.489258 415.046997 618.134094 C 414.800629 618.873291 414.431061 619.489258 414.184662 620.228333 C 412.70639 620.228333 411.228119 620.228333 409.626617 620.228333 C 413.199158 616.779053 409.010681 616.409485 407.53244 616.163086 C 400.264252 615.177612 392.996002 614.438354 385.727814 613.822449 C 376.611786 613.083374 367.618958 612.713745 357.640564 612.221008 C 357.024628 626.511047 356.285492 641.786499 355.546326 658.663574 C 358.256531 656.199768 359.365234 655.214233 361.089874 653.735962 C 361.705811 655.953369 362.075409 657.55481 362.444977 659.156372 C 362.937714 659.279541 363.55368 659.525879 364.046417 659.649048 C 366.140656 655.70697 368.111694 651.888123 369.466797 649.177917 C 366.387054 648.192383 363.55368 647.946045 361.459473 646.590942 C 360.350739 645.851807 360.350739 643.388 359.365234 640.06189 C 361.459473 642.032959 362.321777 642.772034 363.307312 643.634399 C 365.524719 639.322754 368.111694 638.830017 371.437805 642.895264 C 370.205902 638.583618 368.973999 634.395142 367.988495 630.822693 C 365.031952 630.083496 362.814514 629.59082 360.720306 629.098022 C 360.720306 628.605225 360.843506 627.989258 360.843506 627.496582 C 367.372559 626.01825 373.901611 624.539978 380.800232 622.938477 C 379.814728 626.141418 379.075592 628.358887 378.706024 629.837158 C 375.99585 629.221191 373.408844 628.605225 370.6987 627.989258 C 370.5755 628.482056 370.329102 628.974854 370.205902 629.467529 C 373.532043 631.438599 376.981354 633.286499 380.307495 635.257507 L 380.553864 635.134338 C 378.213257 635.134338 375.87265 635.134338 373.162506 635.134338 C 373.408844 638.583618 373.655243 641.663391 373.901611 644.743164 C 375.379883 644.496704 376.981354 644.250366 378.582825 644.003906 C 378.952393 644.373535 379.321991 644.743164 379.568329 645.112671 C 380.800232 644.743164 381.539368 644.989502 382.155334 645.23584 Z M 466.293915 609.634033 C 473.685303 610.25 481.19989 610.865967 489.084015 611.605042 C 488.714478 608.278931 488.468079 606.061523 488.22171 603.720947 C 487.728973 603.720947 487.236176 603.720947 486.743439 603.720947 C 486.127472 605.322388 485.634735 607.046997 484.895569 609.264526 C 483.663696 606.554321 482.678192 604.706421 481.32309 601.873108 C 480.214386 604.336914 479.47525 605.815125 478.489746 608.032593 C 477.504211 605.445557 476.888245 603.597717 475.533142 600.148438 C 474.424469 603.844116 473.931702 605.815125 472.822998 609.264526 C 472.083862 605.691956 471.714294 603.720947 471.221527 601.38031 C 469.250519 604.583252 467.649017 607.170288 466.170776 609.634033 C 466.540314 607.170288 466.786713 604.82959 467.156281 602.365845 C 466.663513 602.242676 466.170776 602.119385 465.677979 601.996216 C 464.938873 603.474548 464.076508 604.82959 463.091003 606.67749 C 461.859131 604.336914 460.996765 602.612183 459.764893 600.271606 C 458.779388 602.612183 458.040222 604.090515 457.054688 606.184753 C 455.945984 603.597717 455.330048 601.873108 454.344543 599.77887 C 453.359009 601.996216 452.743042 603.474548 451.634338 606.061523 C 450.648834 602.98175 450.032898 601.133911 449.047363 597.807739 C 447.93866 601.133911 447.199524 602.98175 446.706757 604.706421 C 444.119751 604.583252 442.025574 604.460083 439.808136 604.336914 C 439.315369 602.612183 438.822632 600.764404 437.960266 598.177368 C 436.605225 600.271606 435.866089 601.503479 434.880524 603.10498 C 433.89502 600.887512 433.155884 599.162903 431.923981 596.32959 C 430.938477 600.148438 430.199341 602.612183 429.460205 605.322388 C 442.025574 606.923828 454.098145 608.278931 466.293915 609.634033 Z M 459.764893 474.125305 C 455.330048 478.067352 459.641693 480.28479 461.982269 484.965973 C 464.076508 482.748596 465.43161 481.270294 468.141754 478.56012 C 464.076508 476.589111 461.735931 475.480347 459.518494 474.248474 C 460.257629 472.154266 461.243164 470.060028 461.735931 467.96582 C 462.721436 463.284607 464.076508 458.480194 458.779388 454.04538 C 455.330048 458.726593 452.127106 463.161377 448.800995 467.719421 C 448.061859 465.502014 446.583557 463.161377 446.829956 460.94397 C 447.199524 457.987396 448.800995 455.277283 449.909698 452.443848 C 450.402435 454.291718 450.895203 456.016388 451.634338 458.726593 C 454.098145 455.893219 455.822784 453.92215 457.547485 451.951141 C 457.054688 451.211975 456.68515 450.472839 456.192383 449.733734 C 454.098145 450.719238 452.003937 451.581604 449.786499 452.567108 C 450.525635 448.378601 448.185059 447.516266 444.858917 448.132233 C 441.779175 448.748169 440.793671 447.516266 441.286407 444.559753 C 443.011078 445.05249 444.858917 445.545258 446.583557 446.038055 C 447.076355 443.820587 447.569092 441.60318 448.061859 439.262604 C 442.148773 437.784302 442.395111 441.849579 441.409607 444.682922 C 438.206665 439.632172 435.49649 441.60318 432.293579 445.545258 C 434.757385 447.639496 436.974762 449.610504 439.192169 451.458344 C 438.822632 452.07431 438.453064 452.567108 438.083466 453.183044 C 435.61969 451.458344 433.279083 449.733734 430.815277 448.009064 C 425.14856 454.784485 425.394958 455.769989 432.293579 458.849731 C 433.77182 459.588928 435.003723 461.436768 435.742889 463.161377 C 437.097961 465.871582 437.960266 468.828125 439.069 471.661499 C 434.264587 470.183228 432.04718 472.893402 429.952942 476.958649 C 432.293579 477.944153 434.264587 478.806488 436.974762 479.915192 C 437.960266 477.328217 438.822632 475.234009 439.561768 473.139771 C 443.750214 475.726746 447.93866 478.190552 453.11264 476.219513 C 451.880737 480.777557 450.525635 485.45874 449.170563 490.632721 C 451.880737 490.75592 453.605377 490.879089 454.96048 490.879089 C 456.68515 485.45874 458.040222 480.407959 452.989441 476.342712 C 455.330048 475.726746 457.547485 474.86441 459.764893 474.125305 Z M 447.81546 663.714294 C 440.547272 675.417358 443.011078 686.997192 442.395111 698.08429 C 445.351654 698.823364 447.692291 699.316162 450.032898 699.80896 C 450.032898 700.055298 449.909698 700.301697 449.909698 700.548096 C 445.474854 700.301697 441.040009 700.178528 436.728394 699.932129 C 436.728394 700.178528 436.728394 700.548096 436.605225 700.794434 C 445.105316 701.656799 453.482208 702.395935 463.70697 703.504639 C 459.888092 702.272766 457.793823 701.656799 455.699646 700.917603 C 455.822784 700.424927 455.945984 699.932129 456.069183 699.439331 C 465.308411 702.765503 475.533142 700.178528 484.895569 705.229248 C 488.714478 707.323486 494.627563 704.859741 499.555145 705.352478 C 518.03363 707.446655 536.512085 709.664124 554.867371 712.374268 C 561.026855 713.359863 563.244263 711.388733 563.244263 705.598816 C 561.273254 705.106079 559.179016 704.490173 556.468872 703.750977 C 561.396423 699.932129 561.150024 696.605957 556.71521 693.772644 C 559.179016 688.475464 561.765991 690.569702 564.352966 694.38855 C 564.352966 689.2146 563.244263 687.120361 558.070313 686.750793 C 548.338318 686.258057 538.606323 684.286987 528.874329 682.931946 C 513.845154 680.837708 498.81604 678.6203 483.786896 677.01886 C 481.076691 676.649231 478.120148 678.49707 474.917206 679.359375 C 474.670837 677.388428 474.178101 674.308655 473.685303 670.736145 C 469.127319 670.243408 464.692474 669.75061 460.257629 669.257813 C 460.257629 669.011475 460.257629 668.765137 460.380829 668.518738 C 461.982269 668.14917 463.583771 667.779663 465.185211 667.286865 C 465.185211 666.794067 465.185211 666.178101 465.185211 665.685425 C 459.148926 665.192627 453.11264 664.453491 447.81546 663.714294 Z M 356.408691 687.120361 C 383.387238 690.692871 410.242584 694.265381 437.467529 697.837891 C 437.590729 694.63501 437.713928 691.308838 437.837128 689.584106 C 434.634186 688.598633 431.923981 687.859497 429.337006 686.874023 C 428.967438 686.750793 429.213837 685.395752 429.090637 684.163818 C 430.44574 685.149353 431.308044 685.888428 432.17038 686.627686 C 432.663147 686.504395 433.155884 686.258057 433.648621 686.134888 C 433.155884 683.424683 432.663147 680.837708 431.923981 676.89563 C 434.264587 673.939087 434.634186 674.062256 438.822632 681.084106 C 438.576233 677.388428 438.453064 674.678223 438.206665 671.598511 C 410.365784 667.902771 382.89447 664.207092 355.546326 660.511353 C 355.299988 661.250488 355.053589 661.989685 354.930389 662.72876 C 357.886932 663.960693 361.459473 666.917236 363.800049 666.178101 C 374.024811 663.344727 382.524872 667.410034 391.640961 671.105713 C 397.800446 667.286865 407.409241 669.873779 409.996216 676.402893 C 411.967255 673.32312 424.655792 671.844849 426.996399 674.555054 C 427.735535 675.417358 427.981934 676.772461 427.981934 678.004395 C 427.981934 680.221802 427.612335 682.439148 427.489136 684.779785 C 427.242798 688.598633 425.394958 689.707397 421.699249 688.229126 C 419.72821 687.48999 417.387604 687.48999 415.293365 686.874023 C 413.075958 686.258057 410.858521 685.395752 407.901978 684.286987 C 404.699036 687.613159 402.23526 687.243591 400.264252 683.424683 C 397.554047 684.040649 395.336639 684.902954 393.119202 685.026184 C 390.901825 685.149353 388.561218 684.779785 386.343781 684.410278 C 380.430695 683.547852 373.778442 684.286987 370.205902 678.49707 C 368.727661 679.482666 367.12616 680.46814 365.155151 681.700073 C 365.155151 677.265137 365.155151 674.185425 365.155151 670.982544 C 364.662384 670.982544 364.292816 670.859375 363.800049 670.859375 C 363.060913 673.199951 362.444977 675.540527 361.459473 678.866699 C 361.089874 676.526062 360.843506 675.294189 360.597137 673.815918 C 359.118835 678.373901 357.886932 682.562378 356.408691 687.120361 Z M 483.294128 547.546387 C 490.685516 547.915955 488.34491 542.372437 488.591278 538.553528 C 490.06958 515.886597 491.547821 493.096527 492.779724 470.429596 C 493.272522 462.175873 492.902924 453.92215 492.902924 446.038055 C 490.315918 446.653992 488.098511 447.269958 485.634735 447.885895 C 485.634735 451.458344 485.757935 455.400452 485.634735 459.465698 C 485.388336 472.031067 485.388336 484.473236 484.649231 496.915405 C 484.156433 506.401001 482.062225 515.886597 481.692627 525.372192 C 481.32309 532.640442 482.678192 539.90863 483.294128 547.546387 Z M 382.524872 523.154785 C 383.264038 523.278015 384.126373 523.401245 384.865509 523.524353 C 385.604614 519.0896 386.220581 514.531494 386.959717 510.09668 C 386.46698 509.97348 385.851013 509.727142 385.358276 509.603943 C 384.003174 510.589447 382.771271 511.698181 380.677032 513.299622 C 382.032135 505.785065 378.459625 498.270477 385.481476 492.973328 C 384.74231 491.864624 383.879974 490.879089 383.140839 489.770386 C 383.01767 489.524017 382.89447 489.277618 382.771271 489.031219 C 383.756775 488.538483 384.619141 488.168915 384.865509 487.922546 C 380.307495 480.531158 385.974213 474.618042 387.082916 467.96582 C 385.481476 468.335358 384.372742 468.581757 382.89447 468.951324 C 382.524872 464.886078 382.278534 461.313538 381.908936 457.741089 C 381.539368 457.741089 381.16983 457.741089 380.800232 457.741089 C 380.061096 478.190552 379.321991 498.640045 378.459625 519.951904 C 379.691528 518.473633 380.307495 517.611267 381.539368 516.256165 C 381.908936 519.0896 382.155334 521.060547 382.524872 523.154785 Z M 321.545959 708.678589 C 321.422791 709.787292 321.176392 710.896057 321.053192 712.12793 C 329.060547 713.60614 336.944672 715.330811 344.951996 716.562744 C 349.386841 717.178711 354.068085 716.316345 356.039093 722.106262 C 356.285492 722.968628 359.242035 723.707764 360.350739 723.215027 C 362.937714 722.106262 365.155151 720.258423 367.742126 718.533752 C 363.55368 717.055542 358.749268 716.316345 354.930389 714.098938 C 350.865143 711.635132 347.169434 711.142334 343.104156 713.113403 C 337.31427 715.946777 332.756226 714.591736 328.198242 710.28009 C 326.71994 708.801819 323.763397 709.171387 321.545959 708.678589 Z M 401.372955 720.012024 C 401.249756 719.149658 401.003357 718.287415 400.880188 717.30188 C 398.66275 717.671509 395.336639 717.178711 394.474304 718.410583 C 391.517761 722.722229 387.945251 720.381592 386.220581 718.533752 C 382.032135 713.975769 379.198792 714.838074 376.119049 719.396118 C 376.981354 720.135254 378.336426 720.751221 378.706024 721.736694 C 380.800232 726.910706 383.879974 727.033875 388.19162 724.2005 C 389.423523 723.338196 391.148163 723.338196 392.749664 722.968628 C 395.583008 722.106262 398.416382 720.997559 401.372955 720.012024 Z M 377.104553 457.864227 C 376.488586 457.741089 375.87265 457.617859 375.256683 457.49469 C 373.285645 464.886078 371.437805 472.154266 369.343597 480.161591 C 376.734985 477.081848 379.814728 466.980286 377.104553 457.864227 Z M 408.394745 602.612183 C 413.322327 603.228149 418.003571 604.090515 422.807953 604.583252 C 428.228302 605.07605 429.090637 603.351318 426.873199 597.561462 C 426.257263 599.532471 425.641296 601.38031 424.655792 604.336914 C 423.547089 601.010742 422.807953 598.916504 421.822449 595.836792 C 420.590546 598.423706 419.85141 600.025269 418.619507 602.489014 C 418.003571 599.532471 417.510803 597.684631 416.894867 594.728027 C 415.416565 597.068665 414.431061 598.423706 413.322327 600.025269 C 412.460022 597.93103 411.720886 596.206299 410.365784 593.126587 C 409.503479 597.191833 409.010681 599.77887 408.394745 602.612183 Z M 343.104156 457.617859 C 342.61142 466.241119 342.241852 474.86441 341.625916 484.842804 C 347.662201 478.067352 348.524536 465.132477 343.104156 457.617859 Z M 331.647522 752.164612 C 332.140289 752.287781 332.756226 752.41095 333.248993 752.53418 C 332.633026 759.432739 332.01709 766.331421 331.401123 773.230042 C 332.140289 773.230042 332.879425 773.353149 333.618561 773.353149 C 334.111328 768.671997 333.988129 763.744385 335.096832 759.186401 C 336.821503 752.041382 333.864929 748.345703 327.335876 746.497803 C 326.84314 750.193542 326.350372 753.766052 325.734436 758.693665 C 328.198242 755.983459 329.922882 754.13562 331.647522 752.164612 Z M 342.241852 561.09729 C 339.901245 562.69873 337.437469 564.42334 335.096832 566.024841 C 335.466431 566.764038 335.959167 567.626282 336.328735 568.365479 C 343.104156 566.024841 349.756439 563.807434 356.53186 561.466797 C 351.973846 561.466797 346.307098 551.734863 342.241852 561.09729 Z M 424.655792 478.067352 C 428.105103 487.922546 438.453064 491.741425 447.322693 496.792206 C 449.170563 497.900909 452.743042 495.929871 456.192383 495.190735 C 449.416962 493.219727 443.011078 492.357361 437.837128 489.400818 C 432.539948 486.567444 428.474701 481.516693 424.655792 478.067352 Z M 417.633972 724.939636 C 421.329651 725.802002 425.14856 725.555542 427.489136 727.280273 C 432.04718 730.729553 431.800781 731.222351 435.866089 727.89624 C 427.242798 720.997559 419.85141 719.519287 417.633972 724.939636 Z M 276.212128 588.691772 C 279.538269 588.445374 282.494812 588.198975 285.944122 587.952637 C 282.002075 585.365601 278.552734 583.025024 273.99472 579.945251 C 272.146881 581.300415 269.436707 583.271362 266.726532 585.242493 C 267.219269 585.981567 267.712036 586.720703 268.204803 587.459839 C 270.299042 586.228027 272.39325 584.996094 274.733856 583.640991 C 275.349792 585.612061 275.84259 587.33667 276.212128 588.691772 Z M 513.229248 613.206543 C 512.366943 610.989136 511.504578 609.018066 510.395874 606.43103 C 509.163971 608.894897 508.301636 610.619507 506.823395 613.576172 C 506.207428 610.25 505.83783 608.278931 505.345093 605.322388 C 504.11319 607.909363 503.374054 609.387634 502.142151 611.85144 C 500.910248 608.771729 500.171112 606.800659 499.432007 604.952881 C 499.062408 604.952881 498.569641 605.07605 498.200104 605.07605 C 498.076904 607.662964 497.953705 610.25 497.830505 613.206543 C 503.250854 613.206543 508.178436 613.206543 513.229248 613.206543 Z M 319.574951 663.837524 C 319.574951 667.040405 318.589417 672.337585 319.69812 672.830383 C 323.640198 674.555054 328.198242 674.555054 332.633026 675.171021 C 332.633026 674.801392 332.633026 674.431824 332.633026 674.062256 C 328.814178 670.982544 324.9953 667.902771 319.574951 663.837524 Z M 328.44458 486.321075 C 329.060547 486.321075 329.676483 486.321075 330.16925 486.321075 C 330.16925 477.328217 330.16925 468.335358 330.16925 459.342529 C 329.553284 459.342529 328.937347 459.342529 328.44458 459.342529 C 328.44458 468.335358 328.44458 477.328217 328.44458 486.321075 Z M 342.734619 656.322876 C 342.734619 655.583801 342.857819 654.844727 342.857819 654.22876 C 334.111328 653.366394 325.488037 652.627197 316.741547 651.764954 C 316.741547 652.504028 316.618378 653.366394 316.618378 654.105469 C 325.364838 654.844727 333.988129 655.583801 342.734619 656.322876 Z M 477.996948 471.045563 C 474.178101 481.023895 469.620056 489.524017 460.257629 494.32843 C 470.236023 492.357361 476.765045 483.980499 477.996948 471.045563 Z M 372.30014 425.218933 C 372.053741 424.603027 371.807404 423.987061 371.561005 423.247925 C 363.800049 426.450867 355.915924 429.776978 348.154938 432.979919 C 348.524536 433.719055 348.770905 434.458191 349.140503 435.197266 C 356.655029 431.871216 364.416016 428.545105 372.30014 425.218933 Z M 397.677246 373.848816 C 397.800446 374.464783 397.923615 375.080688 398.046814 375.696655 C 402.481628 376.435852 407.039673 377.051758 412.336823 377.914063 C 410.612183 370.892273 405.315002 373.10968 401.988892 371.877808 C 400.880188 371.50824 399.155518 373.10968 397.677246 373.848816 Z M 373.778442 499.379211 C 373.655243 498.886414 373.655243 498.393677 373.532043 497.900909 C 360.10437 500.364716 360.597137 488.538483 356.285492 481.393494 C 357.517365 488.415283 358.133331 495.806671 365.27832 499.50235 C 367.618958 500.611115 370.945068 499.50235 373.778442 499.379211 Z M 316.741547 678.373901 C 316.741547 671.105713 316.741547 664.207092 316.741547 657.308472 C 313.292267 663.468018 313.785004 675.786987 316.741547 678.373901 Z M 399.525085 721.367188 C 399.401886 721.983154 399.278687 722.722229 399.155518 723.338196 C 403.95993 722.47583 407.162842 732.207886 414.431061 724.446899 C 408.641144 723.215027 404.083099 722.352661 399.525085 721.367188 Z M 375.749451 510.343079 C 371.561005 509.97348 367.372559 509.727142 362.568176 509.234375 C 367.372559 516.379395 369.220398 516.625732 375.749451 510.343079 Z M 479.967987 626.01825 C 479.967987 631.06897 479.967987 635.503906 479.967987 641.416992 C 484.7724 635.134338 484.526031 628.974854 479.967987 626.01825 Z M 405.80777 854.904846 C 405.068634 855.397583 404.452698 855.89032 403.713531 856.383118 C 406.054138 859.216492 408.394745 862.049805 411.351318 865.622314 C 414.061462 858.107788 410.119415 856.383118 405.80777 854.904846 Z M 591.085144 624.17041 C 594.780823 624.416809 597.491028 624.539978 600.817139 624.786377 C 599.585266 622.199402 598.84613 620.228333 597.737427 617.887756 C 597.12146 620.105164 596.628662 621.706665 595.766418 624.786377 C 594.534485 621.213867 593.918579 619.242798 593.302612 617.271851 C 592.932983 617.271851 592.563416 617.271851 592.317017 617.271851 C 591.824341 619.242798 591.454773 621.213867 591.085144 624.17041 Z M 372.42334 518.596802 C 370.5755 523.031616 369.343597 526.111328 367.988495 529.191101 C 374.763947 529.560669 374.887146 529.4375 372.42334 518.596802 Z M 368.358063 598.670166 C 367.865326 594.604858 367.618958 591.648315 367.249359 588.568542 C 366.879822 588.568542 366.510223 588.691772 366.140656 588.691772 C 365.031952 591.648315 363.800049 594.604858 362.691376 597.438232 C 363.307312 597.561462 365.031952 597.93103 368.358063 598.670166 Z M 453.851776 440.248108 C 453.23584 440.494507 452.496704 440.864075 451.880737 441.110474 C 452.619904 443.081482 453.359009 445.05249 454.098145 447.02356 C 456.069183 446.284363 458.040222 445.422119 461.366333 444.066986 C 457.670624 442.219116 455.822784 441.233612 453.851776 440.248108 Z M 467.895416 464.270111 C 468.757721 463.777344 469.620056 463.284607 470.482391 462.79184 C 469.496857 460.697601 468.511353 458.603363 467.525818 456.385956 C 466.170776 457.248291 464.692474 457.987396 463.337372 458.849731 C 464.938873 460.697601 466.417114 462.422272 467.895416 464.270111 Z M 338.669373 651.025757 C 338.669373 650.40979 338.669373 649.917114 338.669373 649.301147 C 332.633026 648.685181 326.473541 648.192383 320.437256 647.576477 C 320.437256 648.192383 320.314056 648.80835 320.314056 649.424316 C 326.473541 649.917114 332.509857 650.533081 338.669373 651.025757 Z M 446.583557 484.842804 C 446.583557 482.132629 446.583557 480.161591 446.583557 478.313751 C 445.967621 477.944153 445.474854 477.697784 444.858917 477.328217 C 443.011078 478.929688 441.040009 480.407959 439.192169 482.00943 C 441.655975 484.103638 442.64151 484.350037 443.627014 484.596436 C 444.36615 484.596436 445.105316 484.719604 446.583557 484.842804 Z M 349.263641 429.40741 C 339.654877 429.28418 339.408478 429.530579 337.437469 434.950989 C 341.872253 432.85675 345.567963 431.132019 349.263641 429.40741 Z M 371.068237 492.110992 C 377.104553 485.705139 377.104553 485.705139 372.176941 480.900726 C 371.684204 484.965973 371.437805 488.168915 371.068237 492.110992 Z M 305.038544 683.178345 C 305.038544 683.671021 304.915344 684.286987 304.915344 684.779785 C 310.582062 685.395752 316.24881 685.888428 321.915558 686.504395 C 321.915558 686.134888 322.038757 685.642151 322.038757 685.272522 C 316.372009 684.533386 310.705261 683.91748 305.038544 683.178345 Z"/>
            <path id="path1" fill="#314a59" stroke="none" d="M 456.561951 799.592651 C 455.083679 803.534668 453.605377 807.599976 451.634338 812.527588 C 449.909698 806.244873 448.554596 800.947754 447.076355 795.773743 C 446.337189 795.773743 445.598053 795.896973 444.858917 795.896973 C 444.119751 818.194275 443.380646 840.491577 442.764709 862.665771 C 442.271912 862.665771 441.779175 862.789001 441.286407 862.789001 C 441.163208 860.817932 440.91687 858.723755 440.91687 856.752686 C 441.286407 830.882813 441.532806 805.13623 442.025574 779.266357 C 442.148773 770.150269 443.134247 761.03418 443.134247 751.794983 C 443.134247 749.700806 441.286407 746.744263 439.438568 745.881897 C 436.605225 744.526855 433.032684 744.650024 429.829773 744.280457 C 420.713715 743.048523 411.597687 741.81665 402.481628 740.584717 C 402.481628 739.722412 402.604828 738.983276 402.604828 738.120972 C 405.80777 738.244141 409.010681 738.36731 412.213623 738.61377 C 425.394958 739.722412 438.576233 740.707886 451.757538 742.186157 C 456.315582 742.678955 460.750397 744.403564 465.062012 745.881897 C 469.373657 747.360168 469.373657 750.686279 467.279449 755.121094 C 465.308411 752.41095 463.70697 750.316772 462.228668 748.222534 C 461.612732 748.468933 460.996765 748.71521 460.380829 748.838501 C 461.119965 750.932739 461.735931 753.026855 462.598236 754.997925 C 463.70697 757.70813 466.293915 760.295105 466.170776 762.88208 C 465.185211 786.780884 463.70697 810.679749 462.228668 834.578491 C 462.228668 835.071289 461.859131 835.687256 460.750397 836.179932 C 454.714081 824.600159 454.344543 812.650757 459.148926 800.085388 C 458.286591 799.962219 457.424286 799.71582 456.561951 799.592651 Z M 462.228668 758.693665 C 460.996765 758.447266 459.764893 758.200867 458.53299 757.831299 C 457.793823 762.142944 457.177887 766.45459 456.438751 770.766235 C 457.301086 770.889404 458.040222 771.135803 458.902527 771.259033 C 460.13443 767.070557 461.243164 762.88208 462.228668 758.693665 Z"/>
            <path id="path2" fill="#314a59" stroke="none" d="M 591.208374 572.553833 C 591.085144 573.1698 590.715576 573.785767 590.838806 574.401733 C 591.701111 580.31488 590.469177 584.503296 584.063354 584.256897 C 584.679321 586.967102 585.295288 589.430908 586.157532 592.633911 C 589.360535 593.372986 593.918579 594.358521 598.476501 595.220825 C 598.353333 595.713623 598.230225 596.206299 598.106995 596.699097 C 587.512695 594.358521 576.918335 592.141113 566.200806 589.800415 C 565.338501 593.619385 564.599365 596.32959 563.860229 599.409302 C 558.43988 598.793335 553.389099 598.300537 549.816589 597.93103 C 553.019531 592.633911 556.592041 586.843933 560.164551 581.054016 C 561.026855 581.423584 561.88916 581.916382 562.874695 582.285889 C 561.026855 582.03949 559.179016 581.546753 557.331177 581.423584 C 554.005066 581.300415 551.910828 579.822144 552.896362 576.495972 C 554.497803 571.44519 556.099304 566.394409 562.381958 564.916138 C 565.831299 564.053833 569.034241 562.329102 566.939941 557.647949 C 566.447205 556.662476 566.570435 555.184143 566.816772 554.075439 C 568.295044 548.162354 569.896545 542.372437 571.251587 537.075256 C 572.360291 537.567993 574.824097 538.676758 578.643005 540.401367 C 577.041565 544.343506 574.947327 549.517456 572.729919 555.307373 C 575.316833 555.67688 577.657471 556.046509 580.367676 556.416016 C 580.121277 558.140747 579.874878 559.865356 579.505371 561.590027 C 579.998108 561.220459 580.490845 560.85083 580.983582 560.604492 C 584.432922 564.6698 587.882202 568.734985 591.454773 572.923462 C 589.730103 571.937927 587.512695 571.44519 586.527161 569.966919 C 583.940125 566.148071 581.476318 566.517639 579.628479 568.365479 C 582.215515 571.44519 584.556091 574.278564 587.143127 577.358276 C 588.375 575.880005 589.730103 574.155396 591.208374 572.553833 Z M 583.324219 577.974243 C 581.35321 576.372803 579.751709 574.524963 579.135742 574.894531 C 577.411072 575.756836 576.179199 577.358276 574.824097 578.713379 C 576.179199 579.698975 577.411072 581.300415 578.766174 581.300415 C 579.998108 581.300415 581.22998 579.698975 583.324219 577.974243 Z M 573.468994 566.764038 C 571.990784 567.995911 571.005249 568.734985 570.142883 569.597412 C 568.787842 571.075684 567.555908 572.800293 566.200806 574.401733 C 566.816772 574.771362 567.925476 575.633667 568.048645 575.510498 C 570.019714 573.785767 571.990784 571.937927 573.715393 569.966919 C 574.20813 569.474121 573.715393 568.365479 573.468994 566.764038 Z"/>
            <path id="path3" fill="#314a59" stroke="none" d="M 493.51886 596.699097 C 493.026123 588.445374 496.721802 578.959717 486.620239 576.619202 C 483.170929 575.756836 478.859283 578.836609 474.30127 580.31488 C 473.931702 579.945251 472.822998 578.713379 470.112823 575.880005 C 469.127319 581.793091 468.388153 585.981567 467.649017 590.293213 C 467.279449 590.416382 466.909882 590.416382 466.663513 590.539673 C 465.924377 587.090332 465.185211 583.640991 464.322906 579.698975 C 457.424286 577.974243 449.909698 576.126404 442.395111 574.278564 C 468.264954 574.771362 494.381195 571.198853 520.127869 583.271362 C 509.163971 583.640991 510.395874 591.278748 510.888641 598.546997 C 510.026276 598.423706 509.040771 598.300537 508.178436 598.177368 C 507.932098 594.604858 507.685699 591.032349 507.316132 587.583008 C 507.069733 585.612061 506.453796 583.640991 506.084229 581.669922 C 504.11319 582.409058 501.156647 582.409058 500.171112 583.887329 C 497.707306 587.213501 496.105865 591.278748 493.51886 596.699097 Z"/>
            <path id="path4" fill="#314a59" stroke="none" d="M 436.605225 767.932861 C 436.358826 767.070557 435.866089 766.085022 435.866089 765.222656 C 435.866089 755.613892 435.866089 755.613892 426.750031 754.505188 C 420.097748 753.642822 413.445526 752.657349 406.793274 751.671814 C 405.561371 751.425415 404.329498 750.809448 403.343994 749.577576 C 415.662964 746.744263 427.612335 750.809448 440.670471 750.686279 C 439.931335 756.722534 439.192169 762.512512 438.576233 768.302429 C 437.837128 768.05603 437.221161 768.05603 436.605225 767.932861 Z"/>
            <path id="path5" fill="#314a59" stroke="none" d="M 571.128418 693.279846 C 571.251587 691.924805 571.497986 690.200073 571.867554 687.736328 C 578.766174 688.352295 585.418457 688.721924 592.07074 689.830566 C 593.54895 690.076904 595.643188 692.787109 595.889587 694.38855 C 596.382324 699.316162 596.012695 704.490173 596.012695 709.417725 C 595.027222 709.664124 594.041748 709.787292 593.179382 710.033691 C 592.440247 707.693054 591.577942 705.229248 591.208374 702.888672 C 590.838806 700.178528 591.085144 697.345154 591.085144 694.265381 C 584.309692 693.895752 578.027039 693.649475 571.128418 693.279846 Z"/>
            <path id="path6" fill="#314a59" stroke="none" d="M 470.72876 746.867371 C 487.482574 748.592041 504.236389 750.193542 522.468445 752.041382 C 518.03363 754.382019 514.953857 755.983459 511.381378 757.954468 C 501.772583 746.990601 488.34491 753.519653 476.395508 751.302246 C 474.30127 750.932739 472.207062 750.316772 470.236023 749.823975 C 470.236023 748.838501 470.482391 747.852966 470.72876 746.867371 Z"/>
            <path id="path7" fill="#314a59" stroke="none" d="M 484.156433 430.023376 C 484.156433 428.421875 484.156433 426.697266 484.156433 426.943665 C 467.525818 424.110229 452.003937 421.523254 436.482025 418.936279 C 436.482025 418.689941 436.605225 418.443542 436.605225 418.197144 C 454.590881 419.921814 472.576599 421.523254 490.562317 423.247925 C 490.808716 424.233459 491.055084 425.218933 491.301453 426.327698 C 488.837677 427.55957 486.373871 428.791504 484.033264 430.023376 C 483.910095 429.900146 484.156433 430.023376 484.156433 430.023376 Z"/>
            <path id="path8" fill="#314a59" stroke="none" d="M 509.903137 423.371094 C 483.786896 419.921814 457.547485 416.349304 431.431244 412.899963 C 431.554443 412.160889 431.554443 411.544922 431.677643 410.805725 C 457.793823 414.378296 483.910095 417.827576 510.026276 421.400085 C 510.026276 422.139221 509.903137 422.755188 509.903137 423.371094 Z"/>
            <path id="path9" fill="#314a59" stroke="none" d="M 598.353333 687.982666 C 591.824341 686.750793 585.664856 685.642151 577.657471 684.286987 C 583.816956 684.286987 588.25177 684.286987 592.686646 684.286987 C 592.686646 683.91748 592.686646 683.547852 592.686646 683.301514 C 589.976501 682.931946 587.143127 682.439148 584.432922 682.06958 C 584.679321 681.330505 584.80249 680.591309 585.048889 679.852173 C 589.237305 681.084106 593.425781 682.439148 598.353333 683.91748 C 598.353333 679.605835 598.353333 674.431824 598.353333 669.134644 C 598.969299 669.134644 599.585266 669.134644 600.201233 669.134644 C 600.201233 673.692749 600.324341 678.250732 600.201233 682.808716 C 600.078064 687.982666 598.84613 693.772644 606.730225 694.63501 C 605.005615 694.63501 603.280945 694.63501 600.69397 694.63501 C 600.201233 700.055298 599.708435 705.352478 599.092468 710.772827 C 598.84613 710.772827 598.599731 710.772827 598.476501 710.772827 C 598.353333 703.25824 598.353333 695.743652 598.353333 687.982666 Z"/>
            <path id="path10" fill="#314a59" stroke="none" d="M 653.788757 754.505188 C 647.752441 754.997925 642.948059 755.490662 636.788574 755.983459 C 638.759583 754.012451 639.498779 753.150146 640.607422 751.918213 C 637.158142 749.577576 633.955261 747.483337 630.629089 745.26593 C 638.513184 742.555725 643.564026 744.526855 647.629272 751.055908 C 648.368347 752.53418 650.708984 752.903687 653.788757 754.505188 Z"/>
            <path id="path11" fill="#314a59" stroke="none" d="M 434.634186 50.722107 C 437.467529 60.946838 440.670471 72.403442 436.482025 83.983337 C 435.866089 83.983337 435.250122 83.983337 434.634186 83.983337 C 434.634186 72.526672 434.634186 60.946838 434.634186 50.722107 Z"/>
            <path id="path12" fill="#314a59" stroke="none" d="M 394.597504 586.104736 C 410.488983 588.075806 426.257263 589.923706 442.148773 591.894653 C 442.025574 592.387451 442.025574 593.003418 441.902374 593.496094 C 426.010895 591.648315 410.242584 589.677246 394.351105 587.829468 C 394.474304 587.33667 394.597504 586.720703 394.597504 586.104736 Z"/>
            <path id="path13" fill="#314a59" stroke="none" d="M 617.447754 730.113647 C 613.752075 732.084595 609.933228 734.055664 606.237549 736.026733 C 605.86792 734.548401 604.635986 732.823792 605.128784 731.715088 C 607.715759 725.678833 612.273804 727.157043 617.447754 730.113647 Z"/>
            <path id="path14" fill="#314a59" stroke="none" d="M 472.330261 783.824341 C 472.330261 792.570801 472.330261 801.194092 472.330261 809.940552 C 471.960663 809.940552 471.714294 809.940552 471.344696 809.817383 C 471.344696 801.070862 471.344696 792.447632 471.344696 783.701172 C 471.714294 783.701172 472.083862 783.824341 472.330261 783.824341 Z"/>
            <path id="path15" fill="#314a59" stroke="none" d="M 425.887695 584.749695 C 429.706573 584.256897 431.923981 584.01062 434.141418 583.76416 C 432.663147 581.546753 430.076141 579.329346 430.44574 577.974243 C 431.061676 575.880005 433.77182 574.524963 436.974762 571.69165 C 436.482025 577.851074 436.112427 581.916382 435.742889 586.228027 C 432.909515 585.858398 430.199341 585.48877 425.887695 584.749695 Z"/>
            <path id="path16" fill="#314a59" stroke="none" d="M 632.600098 715.207703 C 635.063904 712.0047 636.665344 708.801819 633.092896 705.229248 C 632.600098 704.736572 632.723328 702.765503 633.339294 702.272766 C 633.955261 701.656799 636.295776 701.903137 636.295776 702.026367 C 637.034973 705.229248 638.020508 708.678589 637.774109 711.881531 C 637.65094 713.482971 635.433472 715.084473 634.078369 716.562744 C 633.708862 716.193176 633.092896 715.700378 632.600098 715.207703 Z"/>
            <path id="path17" fill="#314a59" stroke="none" d="M 532.939575 596.575867 C 531.954102 597.191833 530.229431 598.423706 528.135193 599.901978 C 526.410522 594.604858 524.809082 589.430908 523.084412 584.380127 C 526.164124 584.749695 528.504761 586.597534 529.490295 590.662781 C 529.983032 592.757019 531.707703 594.481689 532.939575 596.575867 Z"/>
            <path id="path18" fill="#314a59" stroke="none" d="M 436.851563 15.243469 C 436.482025 20.294189 436.112427 25.221802 435.49649 31.874084 C 429.706573 18.692749 429.706573 18.692749 434.510986 14.99707 C 435.250122 15.120239 435.989258 15.120239 436.851563 15.243469 Z"/>
            <path id="path19" fill="#314a59" stroke="none" d="M 447.81546 593.126587 C 449.540131 592.633911 451.141602 592.017944 452.989441 591.525146 C 452.989441 588.445374 452.989441 585.858398 452.989441 583.148254 C 453.605377 582.778687 454.221344 582.532288 454.83728 582.16272 C 454.344543 588.814941 456.192383 593.496094 463.70697 593.372986 C 463.460571 593.865723 463.337372 594.358521 463.091003 594.851257 C 458.040222 594.481689 452.866241 594.235352 447.81546 593.865723 C 447.692291 593.619385 447.81546 593.372986 447.81546 593.126587 Z"/>
            <path id="path20" fill="#314a59" stroke="none" d="M 626.810181 714.222107 C 626.687012 712.990234 626.563843 711.881531 626.440613 710.649658 C 626.317444 709.048218 626.440613 707.446655 626.071045 705.845215 C 625.701477 704.366943 624.716003 703.13501 624.100037 701.779968 C 624.962341 701.4104 626.440613 700.548096 626.563843 700.671265 C 627.549377 702.272766 628.904419 703.874207 629.150818 705.722046 C 629.520325 708.55542 629.273987 711.388733 629.273987 714.222107 C 628.411682 714.222107 627.672485 714.222107 626.810181 714.222107 Z"/>
            <path id="path21" fill="#314a59" stroke="none" d="M 613.505676 700.794434 C 614.73761 700.055298 616.33905 698.700195 617.201355 698.946594 C 618.433289 699.316162 619.665161 701.164001 619.91156 702.395935 C 620.157959 705.352478 620.034729 708.432251 619.541992 711.388733 C 619.418762 712.374268 617.694153 713.113403 617.324585 713.359863 C 616.708679 709.048218 616.215881 705.106079 615.723083 701.164001 C 614.984009 701.040894 614.244873 700.917603 613.505676 700.794434 Z"/>
            <path id="path22" fill="#314a59" stroke="none" d="M 492.779724 555.67688 C 502.142151 556.662476 511.504578 557.771118 520.990234 558.756714 C 520.990234 559.24939 520.867004 559.865356 520.867004 560.358154 C 511.504578 559.37262 502.142151 558.263916 492.656555 557.278381 C 492.656555 556.662476 492.656555 556.169678 492.779724 555.67688 Z"/>
            <path id="path23" fill="#314a59" stroke="none" d="M 582.831421 731.468689 C 583.20105 728.265747 583.693787 725.186035 584.063354 721.983154 C 585.295288 722.47583 586.773499 722.722229 587.882202 723.584595 C 589.237305 724.570068 590.099609 726.04834 591.208374 727.280273 C 589.730103 728.142578 588.128601 729.004883 586.65033 729.74408 C 585.541565 730.483154 584.186523 730.852722 582.831421 731.468689 Z"/>
            <path id="path24" fill="#314a59" stroke="none" d="M 602.54187 699.316162 C 604.020081 698.823364 605.99115 697.345154 606.976624 697.837891 C 611.04187 699.68573 611.1651 705.968445 607.59259 711.511963 C 605.128784 708.309021 611.411438 701.28717 602.172241 701.28717 C 602.295471 700.671265 602.418579 700.055298 602.54187 699.316162 Z"/>
            <path id="path25" fill="#314a59" stroke="none" d="M 432.786316 116.505432 C 432.786316 107.389343 432.786316 98.150146 432.786316 89.034058 C 433.155884 89.034058 433.648621 89.034058 434.018219 89.034058 C 434.018219 98.273315 434.018219 107.389343 434.018219 116.628601 C 433.648621 116.628601 433.155884 116.628601 432.786316 116.505432 Z"/>
            <path id="path26" fill="#314a59" stroke="none" d="M 647.013306 714.961304 C 645.658264 712.0047 644.426392 709.048218 642.578491 704.859741 C 643.687195 704.613281 645.411865 704.366943 647.259705 703.997375 C 647.875671 707.569885 648.491638 711.265625 649.107544 714.838074 C 648.368347 714.961304 647.752441 714.961304 647.013306 714.961304 Z"/>
            <path id="path27" fill="#314a59" stroke="none" d="M 662.04248 707.693054 C 663.520752 707.323486 664.998962 706.953979 666.477295 706.461182 C 667.093262 709.048218 668.201965 711.635132 668.201965 714.345337 C 668.201965 715.823608 666.600525 717.30188 665.122253 718.410583 C 665.984558 714.345337 669.680237 710.15686 662.04248 707.693054 Z"/>
            <path id="path28" fill="#314a59" stroke="none" d="M 654.158325 717.055542 C 657.114868 712.867065 659.209106 709.294495 650.216248 707.200317 C 653.542358 705.722046 655.02063 705.229248 656.375732 704.613281 C 657.114868 706.338013 658.346802 708.062622 658.469971 709.787292 C 658.71637 712.743896 659.701843 716.562744 654.158325 717.055542 Z"/>
            <path id="path29" fill="#314a59" stroke="none" d="M 504.11319 426.697266 C 509.28717 426.943665 514.461121 427.313171 519.635132 427.55957 C 519.635132 428.175537 519.635132 428.668274 519.635132 429.28418 C 514.461121 428.914673 509.28717 428.668274 504.11319 428.298706 C 504.11319 427.805908 504.11319 427.189941 504.11319 426.697266 Z"/>
            <path id="path30" fill="#314a59" stroke="none" d="M 676.332458 719.888855 C 675.470093 716.562744 674.731018 713.852539 673.622253 709.787292 C 673.375977 709.910461 675.346985 708.432251 675.962891 708.924927 C 680.274536 712.374268 677.564392 716.069946 676.332458 719.888855 Z"/>
            <path id="path31" fill="#314a59" stroke="none" d="M 595.273621 728.635315 C 595.766418 730.729553 596.135986 732.823792 596.751892 735.657166 C 594.534485 735.533997 592.686646 735.287598 589.606934 735.164368 C 591.331543 732.330994 592.563416 730.359985 593.795349 728.388916 C 594.288086 728.388916 594.780823 728.512146 595.273621 728.635315 Z"/>
            <path id="path32" fill="#314a59" stroke="none" d="M 380.800232 634.641541 C 383.756775 635.873413 385.235077 635.134338 384.495941 631.808228 C 382.771271 623.677612 385.358276 619.612427 393.611969 619.119629 C 399.032349 618.75 404.452698 619.489258 409.996216 619.735596 C 404.699036 626.387817 412.090424 624.786377 414.800629 626.387817 C 412.336823 628.605225 406.054138 626.01825 407.65564 632.424133 C 405.68457 632.793701 403.713531 633.163269 401.742493 633.532837 C 401.742493 633.902466 401.742493 634.395142 401.742493 634.764709 C 403.220795 635.257507 404.699036 635.627075 407.409241 636.366211 C 403.590332 637.844482 400.756989 639.076355 397.923615 640.185059 C 397.184509 639.076355 396.198944 636.982178 395.706207 637.105347 C 391.271362 637.967651 385.235077 635.380615 383.387238 642.525757 C 383.140839 643.388 381.416199 643.757629 380.307495 644.373535 C 379.937927 644.003906 379.568329 643.634399 379.321991 643.264832 C 379.937927 640.308228 380.553864 637.351746 381.16983 634.518433 L 380.800232 634.641541 Z"/>
            <path id="path33" fill="#314a59" stroke="none" d="M 387.082916 651.395325 C 385.481476 649.301147 383.756775 647.330078 382.155334 645.23584 C 382.155334 645.23584 382.155334 645.112671 382.155334 645.112671 C 383.387238 644.250366 385.111877 643.757629 385.974213 642.525757 C 388.314819 639.445984 390.285858 637.598145 392.872864 642.279297 C 392.996002 642.525757 395.583008 641.540161 397.06131 641.170593 C 393.735168 644.619873 390.409058 647.946045 387.082916 651.395325 Z"/>
            <path id="path34" fill="#314a59" stroke="none" d="M 368.727661 698.08429 C 370.945068 698.08429 373.285645 697.961121 375.503082 698.330688 C 376.119049 698.453857 377.227753 700.671265 376.858185 701.164001 C 376.119049 702.395935 374.640747 704.120605 373.532043 703.997375 C 371.561005 703.750977 369.589966 702.642334 367.988495 701.4104 C 367.618958 701.164001 368.604462 698.946594 368.973999 697.591492 C 369.097198 697.714722 368.727661 698.08429 368.727661 698.08429 Z"/>
            <path id="path35" fill="#314a59" stroke="none" d="M 496.845001 727.033875 C 495.366699 729.004883 493.888458 730.975952 491.671021 734.055664 C 488.098511 732.207886 483.910095 730.113647 479.721649 727.89624 C 480.091187 726.910706 480.337585 725.802002 480.707153 724.816467 C 486.127472 725.678833 491.547821 726.417908 496.968201 727.280273 C 496.968201 727.280273 496.845001 727.033875 496.845001 727.033875 Z"/>
            <path id="path36" fill="#314a59" stroke="none" d="M 568.787842 742.678955 C 565.092102 741.323853 561.273254 740.091919 557.823914 738.490479 C 557.208008 738.244141 557.577515 735.780273 557.577515 734.302124 C 560.780457 734.548401 564.229797 734.302124 567.063171 735.410767 C 568.787842 736.149902 569.650146 739.106445 570.75885 740.954285 C 570.019714 741.447083 569.403748 742.063049 568.787842 742.678955 Z"/>
            <path id="path37" fill="#314a59" stroke="none" d="M 395.952606 711.758301 C 400.38739 710.649658 405.191833 710.033691 405.561371 703.750977 C 405.561371 703.25824 407.901978 702.149536 408.764313 702.395935 C 410.735382 703.13501 412.583221 704.490173 414.431061 705.722046 C 413.199158 706.584412 411.967255 707.446655 410.735382 708.432251 C 409.38028 709.540894 408.148376 710.896057 406.177338 712.867065 C 403.590332 712.497498 399.771454 712.12793 395.952606 711.758301 C 395.952606 711.758301 395.952606 711.758301 395.952606 711.758301 Z"/>
            <path id="path38" fill="#314a59" stroke="none" d="M 463.70697 716.069946 C 464.692474 715.823608 465.924377 714.961304 466.540314 715.330811 C 470.72876 717.917786 474.670837 721.367188 479.228851 716.069946 C 480.214386 716.932312 481.19989 717.917786 482.308594 718.903381 C 473.931702 722.722229 467.033081 721.613525 463.70697 716.069946 Z"/>
            <path id="path39" fill="#314a59" stroke="none" d="M 523.207581 713.72937 C 525.055481 715.823608 526.656921 717.055542 527.026489 718.533752 C 527.149719 719.396118 524.685913 721.736694 523.946777 721.490356 C 522.345276 721.120789 520.990234 719.396118 519.511902 718.287415 C 520.497437 717.055542 521.482971 715.823608 523.207581 713.72937 Z"/>
            <path id="path40" fill="#314a59" stroke="none" d="M 578.273438 726.664307 C 576.795166 727.157043 575.070496 728.388916 573.715393 728.142578 C 572.360291 727.89624 571.251587 726.171509 570.142883 725.062866 C 571.251587 724.2005 572.360291 722.722229 573.468994 722.845398 C 575.193726 722.968628 576.795166 724.2005 578.396606 724.939636 C 578.273438 725.555542 578.273438 726.171509 578.273438 726.664307 Z"/>
            <path id="path41" fill="#314a59" stroke="none" d="M 434.018219 715.823608 C 430.44574 715.577271 427.981934 715.453979 424.286255 715.207703 C 426.010895 712.620667 427.119598 710.772827 428.844238 708.185852 C 430.692078 710.896057 432.04718 712.990234 434.018219 715.823608 Z"/>
            <path id="path42" fill="#314a59" stroke="none" d="M 545.135376 718.164185 C 546.24408 718.656982 547.352783 719.149658 548.461487 719.642456 C 549.939819 720.258423 551.54126 720.997559 553.019531 721.736694 C 551.910828 722.59906 550.555725 724.446899 549.816589 724.2005 C 547.722351 723.584595 545.874512 722.106262 544.149841 720.751221 C 544.026672 720.627991 544.889038 719.02655 545.381775 718.164185 C 545.258545 718.041016 545.135376 718.164185 545.135376 718.164185 Z"/>
            <path id="path43" fill="#314a59" stroke="none" d="M 458.779388 708.432251 C 459.395325 708.55542 460.13443 708.432251 460.627228 708.678589 C 462.475067 709.664124 464.199707 710.772827 465.924377 711.758301 C 464.199707 712.497498 462.351868 713.975769 460.750397 713.72937 C 457.547485 713.236572 457.054688 710.896057 458.902527 708.309021 C 458.902527 708.309021 458.779388 708.432251 458.779388 708.432251 Z"/>
            <path id="path44" fill="#314a59" stroke="none" d="M 446.460388 679.236267 C 446.706757 670.982544 446.706757 670.982544 454.098145 671.72168 C 457.793823 672.091309 461.366333 672.707214 465.062012 672.707214 C 471.591095 672.707214 473.192566 674.185425 472.576599 680.714539 C 472.083862 684.902954 471.591095 689.2146 471.098358 694.019043 C 464.199707 693.526245 457.301086 692.910278 450.402435 692.417603 C 450.402435 691.801636 450.525635 691.185669 450.525635 690.569702 C 454.098145 690.81604 457.670624 691.062439 461.366333 691.432007 C 456.561951 688.845032 450.525635 687.859497 451.018402 679.359375 C 452.743042 681.823242 453.974945 683.671021 455.576447 686.011719 C 456.561951 684.656555 457.177887 683.794312 457.301086 683.671021 C 460.380829 684.902954 463.337372 686.134888 467.156281 687.613159 C 464.692474 677.142029 453.359009 673.076782 446.460388 679.236267 Z"/>
            <path id="path45" fill="#314a59" stroke="none" d="M 553.881836 704.613281 C 550.432556 704.243774 549.077454 704.120605 548.215088 703.997375 C 548.215088 699.562561 548.215088 695.374084 548.215088 690.200073 C 548.215088 690.200073 550.432556 689.707397 550.432556 689.830566 C 551.664429 694.38855 552.649963 698.946594 553.881836 704.613281 Z"/>
            <path id="path46" fill="#314a59" stroke="none" d="M 538.975891 703.25824 C 538.483154 697.837891 538.113586 694.63501 537.867188 691.308838 C 537.743958 690.323364 537.990356 689.2146 538.359924 688.229126 C 538.483154 688.105957 540.330994 688.229126 540.454163 688.475464 C 541.193298 691.555237 542.055603 694.63501 542.055603 697.591492 C 542.055603 699.192993 540.330994 700.917603 538.975891 703.25824 Z"/>
            <path id="path47" fill="#314a59" stroke="none" d="M 532.693237 701.040894 C 529.243896 700.424927 527.519226 700.055298 525.424988 699.68573 C 530.722168 696.605957 530.845398 693.156677 524.932251 688.845032 C 527.765625 688.598633 530.845398 688.105957 530.845398 688.352295 C 531.584473 692.171143 532.077271 696.113281 532.693237 701.040894 Z"/>
            <path id="path48" fill="#314a59" stroke="none" d="M 507.685699 684.163818 C 509.410339 685.149353 511.997345 685.888428 512.243713 686.997192 C 512.982849 690.569702 514.214783 694.758179 510.026276 697.961121 C 509.28717 693.649475 508.671234 689.830566 507.685699 684.163818 Z"/>
            <path id="path49" fill="#314a59" stroke="none" d="M 500.910248 699.069763 C 499.924744 693.156677 499.308807 689.33783 498.446472 684.533386 C 498.200104 684.656555 500.66391 683.301514 501.156647 683.794312 C 502.38855 685.149353 503.250854 687.243591 503.250854 688.968201 C 503.004486 691.924805 501.895782 694.758179 500.910248 699.069763 Z"/>
            <path id="path50" fill="#314a59" stroke="none" d="M 491.671021 696.113281 C 490.931885 691.801636 490.315918 687.859497 489.576813 683.055115 C 490.808716 683.671021 493.026123 683.91748 493.51886 684.902954 C 494.997162 688.721924 495.489899 692.787109 491.671021 696.113281 Z"/>
            <path id="path51" fill="#314a59" stroke="none" d="M 479.967987 681.453613 C 485.141968 683.671021 485.881134 687.613159 482.062225 695.250916 C 481.32309 690.200073 480.707153 686.134888 479.967987 681.453613 Z"/>
            <path id="path52" fill="#314a59" stroke="none" d="M 520.990234 698.946594 C 519.88147 694.881348 518.895935 691.432007 518.156799 687.982666 C 518.03363 687.36676 518.895935 686.011719 519.019165 686.011719 C 520.127869 686.258057 521.729309 686.504395 521.975708 687.243591 C 523.577148 691.062439 523.577148 695.004517 520.990234 698.946594 Z"/>
            <path id="path53" fill="#314a59" stroke="none" d="M 435.49649 624.539978 C 437.590729 624.539978 438.453064 624.416809 439.192169 624.539978 C 441.163208 624.909546 443.134247 625.525513 445.105316 626.141418 C 445.105316 626.141418 444.735718 628.112549 444.612549 628.112549 C 442.271912 627.989258 439.931335 627.866089 437.590729 627.373291 C 436.974762 627.250122 436.482025 626.01825 435.49649 624.539978 Z"/>
        </g>
    </g>
</svg>
